%TF.GenerationSoftware,KiCad,Pcbnew,(6.0.11-0)*%
%TF.CreationDate,2023-05-07T13:48:13+09:00*%
%TF.ProjectId,tubeTest,74756265-5465-4737-942e-6b696361645f,rev?*%
%TF.SameCoordinates,Original*%
%TF.FileFunction,Soldermask,Top*%
%TF.FilePolarity,Negative*%
%FSLAX46Y46*%
G04 Gerber Fmt 4.6, Leading zero omitted, Abs format (unit mm)*
G04 Created by KiCad (PCBNEW (6.0.11-0)) date 2023-05-07 13:48:13*
%MOMM*%
%LPD*%
G01*
G04 APERTURE LIST*
G04 Aperture macros list*
%AMRoundRect*
0 Rectangle with rounded corners*
0 $1 Rounding radius*
0 $2 $3 $4 $5 $6 $7 $8 $9 X,Y pos of 4 corners*
0 Add a 4 corners polygon primitive as box body*
4,1,4,$2,$3,$4,$5,$6,$7,$8,$9,$2,$3,0*
0 Add four circle primitives for the rounded corners*
1,1,$1+$1,$2,$3*
1,1,$1+$1,$4,$5*
1,1,$1+$1,$6,$7*
1,1,$1+$1,$8,$9*
0 Add four rect primitives between the rounded corners*
20,1,$1+$1,$2,$3,$4,$5,0*
20,1,$1+$1,$4,$5,$6,$7,0*
20,1,$1+$1,$6,$7,$8,$9,0*
20,1,$1+$1,$8,$9,$2,$3,0*%
%AMHorizOval*
0 Thick line with rounded ends*
0 $1 width*
0 $2 $3 position (X,Y) of the first rounded end (center of the circle)*
0 $4 $5 position (X,Y) of the second rounded end (center of the circle)*
0 Add line between two ends*
20,1,$1,$2,$3,$4,$5,0*
0 Add two circle primitives to create the rounded ends*
1,1,$1,$2,$3*
1,1,$1,$4,$5*%
G04 Aperture macros list end*
%ADD10C,1.600000*%
%ADD11O,1.600000X1.600000*%
%ADD12RoundRect,0.250002X-1.499998X-1.499998X1.499998X-1.499998X1.499998X1.499998X-1.499998X1.499998X0*%
%ADD13RoundRect,0.250002X-1.699998X-1.699998X1.699998X-1.699998X1.699998X1.699998X-1.699998X1.699998X0*%
%ADD14C,3.200000*%
%ADD15R,1.600000X1.600000*%
%ADD16HorizOval,2.030000X-0.412599X0.299770X0.412599X-0.299770X0*%
%ADD17HorizOval,2.030000X-0.157599X0.485039X0.157599X-0.485039X0*%
%ADD18HorizOval,2.030000X0.157599X0.485039X-0.157599X-0.485039X0*%
%ADD19HorizOval,2.030000X0.412599X0.299770X-0.412599X-0.299770X0*%
%ADD20O,3.050000X2.030000*%
%ADD21C,4.500000*%
G04 APERTURE END LIST*
D10*
%TO.C,R8*%
X123190000Y-91440000D03*
D11*
X138430000Y-91440000D03*
%TD*%
D10*
%TO.C,C2*%
X156210000Y-105410000D03*
X166210000Y-105410000D03*
%TD*%
D12*
%TO.C,J9*%
X170180000Y-85090000D03*
%TD*%
%TO.C,J7*%
X130810000Y-85090000D03*
%TD*%
D10*
%TO.C,R10*%
X113030000Y-111760000D03*
D11*
X133350000Y-111760000D03*
%TD*%
D12*
%TO.C,J10*%
X114300000Y-85090000D03*
%TD*%
D13*
%TO.C,J2*%
X144780000Y-125730000D03*
%TD*%
D12*
%TO.C,J5*%
X125730000Y-85090000D03*
%TD*%
D10*
%TO.C,R5*%
X156210000Y-121920000D03*
D11*
X171450000Y-121920000D03*
%TD*%
D10*
%TO.C,C6*%
X123130000Y-116205000D03*
X115630000Y-116205000D03*
%TD*%
%TO.C,R2*%
X121920000Y-99060000D03*
D11*
X137160000Y-99060000D03*
%TD*%
D10*
%TO.C,C5*%
X158690000Y-91440000D03*
X151190000Y-91440000D03*
%TD*%
%TO.C,R3*%
X156210000Y-118110000D03*
D11*
X171450000Y-118110000D03*
%TD*%
D14*
%TO.C,H1*%
X167005000Y-92710000D03*
%TD*%
%TO.C,H2*%
X121920000Y-126365000D03*
%TD*%
D12*
%TO.C,J8*%
X153670000Y-85090000D03*
%TD*%
%TO.C,J6*%
X144780000Y-85090000D03*
%TD*%
D15*
%TO.C,C3*%
X136776395Y-120832500D03*
D10*
X139276395Y-120832500D03*
%TD*%
%TO.C,R11*%
X119380000Y-102870000D03*
D11*
X134620000Y-102870000D03*
%TD*%
D12*
%TO.C,J1*%
X158750000Y-85090000D03*
%TD*%
D10*
%TO.C,C4*%
X133270000Y-107315000D03*
X123270000Y-107315000D03*
%TD*%
%TO.C,R12*%
X127000000Y-120650000D03*
D11*
X111760000Y-120650000D03*
%TD*%
D10*
%TO.C,R1*%
X171450000Y-114300000D03*
D11*
X156210000Y-114300000D03*
%TD*%
D15*
%TO.C,C1*%
X153430000Y-120650000D03*
D10*
X150930000Y-120650000D03*
%TD*%
%TO.C,R9*%
X138430000Y-95250000D03*
D11*
X123190000Y-95250000D03*
%TD*%
D10*
%TO.C,R4*%
X171450000Y-110490000D03*
D11*
X156210000Y-110490000D03*
%TD*%
D10*
%TO.C,R7*%
X162560000Y-96070000D03*
D11*
X147320000Y-96070000D03*
%TD*%
D12*
%TO.C,J3*%
X139700000Y-85090000D03*
%TD*%
D10*
%TO.C,R6*%
X172720000Y-100330000D03*
D11*
X152400000Y-100330000D03*
%TD*%
D16*
%TO.C,U3*%
X141330000Y-113970000D03*
D17*
X139180000Y-111040000D03*
D18*
X139180000Y-107390000D03*
D19*
X141330000Y-104460000D03*
D20*
X144780000Y-103320000D03*
D16*
X148240000Y-104460000D03*
D17*
X150390000Y-107390000D03*
D18*
X150390000Y-111000000D03*
D21*
X144780000Y-109220000D03*
D19*
X148240000Y-113970000D03*
%TD*%
M02*
