%TF.GenerationSoftware,KiCad,Pcbnew,(6.0.11-0)*%
%TF.CreationDate,2023-05-07T13:50:48+09:00*%
%TF.ProjectId,tubeTest,74756265-5465-4737-942e-6b696361645f,rev?*%
%TF.SameCoordinates,Original*%
%TF.FileFunction,Drillmap*%
%TF.FilePolarity,Positive*%
%FSLAX45Y45*%
G04 Gerber Fmt 4.5, Leading zero omitted, Abs format (unit mm)*
G04 Created by KiCad (PCBNEW (6.0.11-0)) date 2023-05-07 13:50:48*
%MOMM*%
%LPD*%
G01*
G04 APERTURE LIST*
%ADD10C,0.100000*%
%ADD11C,0.200000*%
%ADD12C,0.320000*%
G04 APERTURE END LIST*
D10*
X10922000Y-8128000D02*
X17526000Y-8128000D01*
X10922000Y-13081000D02*
X10922000Y-8128000D01*
X17526000Y-13081000D02*
X10922000Y-13081000D01*
X17526000Y-8128000D02*
X17526000Y-13081000D01*
D11*
D12*
X12032000Y-12476500D02*
X12352000Y-12796500D01*
X12352000Y-12476500D02*
X12032000Y-12796500D01*
X16540500Y-9111000D02*
X16860500Y-9431000D01*
X16860500Y-9111000D02*
X16540500Y-9431000D01*
D11*
X11174619Y-13396476D02*
X11174619Y-13196476D01*
X11222238Y-13196476D01*
X11250809Y-13206000D01*
X11269857Y-13225048D01*
X11279381Y-13244095D01*
X11288905Y-13282190D01*
X11288905Y-13310762D01*
X11279381Y-13348857D01*
X11269857Y-13367905D01*
X11250809Y-13386952D01*
X11222238Y-13396476D01*
X11174619Y-13396476D01*
X11374619Y-13396476D02*
X11374619Y-13263143D01*
X11374619Y-13301238D02*
X11384143Y-13282190D01*
X11393667Y-13272667D01*
X11412714Y-13263143D01*
X11431762Y-13263143D01*
X11498428Y-13396476D02*
X11498428Y-13263143D01*
X11498428Y-13196476D02*
X11488905Y-13206000D01*
X11498428Y-13215524D01*
X11507952Y-13206000D01*
X11498428Y-13196476D01*
X11498428Y-13215524D01*
X11622238Y-13396476D02*
X11603190Y-13386952D01*
X11593667Y-13367905D01*
X11593667Y-13196476D01*
X11727000Y-13396476D02*
X11707952Y-13386952D01*
X11698428Y-13367905D01*
X11698428Y-13196476D01*
X11955571Y-13396476D02*
X11955571Y-13196476D01*
X12022238Y-13339333D01*
X12088905Y-13196476D01*
X12088905Y-13396476D01*
X12269857Y-13396476D02*
X12269857Y-13291714D01*
X12260333Y-13272667D01*
X12241286Y-13263143D01*
X12203190Y-13263143D01*
X12184143Y-13272667D01*
X12269857Y-13386952D02*
X12250809Y-13396476D01*
X12203190Y-13396476D01*
X12184143Y-13386952D01*
X12174619Y-13367905D01*
X12174619Y-13348857D01*
X12184143Y-13329809D01*
X12203190Y-13320286D01*
X12250809Y-13320286D01*
X12269857Y-13310762D01*
X12365095Y-13263143D02*
X12365095Y-13463143D01*
X12365095Y-13272667D02*
X12384143Y-13263143D01*
X12422238Y-13263143D01*
X12441286Y-13272667D01*
X12450809Y-13282190D01*
X12460333Y-13301238D01*
X12460333Y-13358381D01*
X12450809Y-13377428D01*
X12441286Y-13386952D01*
X12422238Y-13396476D01*
X12384143Y-13396476D01*
X12365095Y-13386952D01*
X12546048Y-13377428D02*
X12555571Y-13386952D01*
X12546048Y-13396476D01*
X12536524Y-13386952D01*
X12546048Y-13377428D01*
X12546048Y-13396476D01*
X12546048Y-13272667D02*
X12555571Y-13282190D01*
X12546048Y-13291714D01*
X12536524Y-13282190D01*
X12546048Y-13272667D01*
X12546048Y-13291714D01*
X10717000Y-13626000D02*
X10917000Y-13826000D01*
X10917000Y-13626000D02*
X10717000Y-13826000D01*
X11155571Y-13616476D02*
X11279381Y-13616476D01*
X11212714Y-13692667D01*
X11241286Y-13692667D01*
X11260333Y-13702190D01*
X11269857Y-13711714D01*
X11279381Y-13730762D01*
X11279381Y-13778381D01*
X11269857Y-13797428D01*
X11260333Y-13806952D01*
X11241286Y-13816476D01*
X11184143Y-13816476D01*
X11165095Y-13806952D01*
X11155571Y-13797428D01*
X11365095Y-13797428D02*
X11374619Y-13806952D01*
X11365095Y-13816476D01*
X11355571Y-13806952D01*
X11365095Y-13797428D01*
X11365095Y-13816476D01*
X11450809Y-13635524D02*
X11460333Y-13626000D01*
X11479381Y-13616476D01*
X11527000Y-13616476D01*
X11546048Y-13626000D01*
X11555571Y-13635524D01*
X11565095Y-13654571D01*
X11565095Y-13673619D01*
X11555571Y-13702190D01*
X11441286Y-13816476D01*
X11565095Y-13816476D01*
X11688905Y-13616476D02*
X11707952Y-13616476D01*
X11727000Y-13626000D01*
X11736524Y-13635524D01*
X11746048Y-13654571D01*
X11755571Y-13692667D01*
X11755571Y-13740286D01*
X11746048Y-13778381D01*
X11736524Y-13797428D01*
X11727000Y-13806952D01*
X11707952Y-13816476D01*
X11688905Y-13816476D01*
X11669857Y-13806952D01*
X11660333Y-13797428D01*
X11650809Y-13778381D01*
X11641286Y-13740286D01*
X11641286Y-13692667D01*
X11650809Y-13654571D01*
X11660333Y-13635524D01*
X11669857Y-13626000D01*
X11688905Y-13616476D01*
X11879381Y-13616476D02*
X11898428Y-13616476D01*
X11917476Y-13626000D01*
X11927000Y-13635524D01*
X11936524Y-13654571D01*
X11946048Y-13692667D01*
X11946048Y-13740286D01*
X11936524Y-13778381D01*
X11927000Y-13797428D01*
X11917476Y-13806952D01*
X11898428Y-13816476D01*
X11879381Y-13816476D01*
X11860333Y-13806952D01*
X11850809Y-13797428D01*
X11841286Y-13778381D01*
X11831762Y-13740286D01*
X11831762Y-13692667D01*
X11841286Y-13654571D01*
X11850809Y-13635524D01*
X11860333Y-13626000D01*
X11879381Y-13616476D01*
X12031762Y-13816476D02*
X12031762Y-13683143D01*
X12031762Y-13702190D02*
X12041286Y-13692667D01*
X12060333Y-13683143D01*
X12088905Y-13683143D01*
X12107952Y-13692667D01*
X12117476Y-13711714D01*
X12117476Y-13816476D01*
X12117476Y-13711714D02*
X12127000Y-13692667D01*
X12146048Y-13683143D01*
X12174619Y-13683143D01*
X12193667Y-13692667D01*
X12203190Y-13711714D01*
X12203190Y-13816476D01*
X12298428Y-13816476D02*
X12298428Y-13683143D01*
X12298428Y-13702190D02*
X12307952Y-13692667D01*
X12327000Y-13683143D01*
X12355571Y-13683143D01*
X12374619Y-13692667D01*
X12384143Y-13711714D01*
X12384143Y-13816476D01*
X12384143Y-13711714D02*
X12393667Y-13692667D01*
X12412714Y-13683143D01*
X12441286Y-13683143D01*
X12460333Y-13692667D01*
X12469857Y-13711714D01*
X12469857Y-13816476D01*
X12860333Y-13606952D02*
X12688905Y-13864095D01*
X13117476Y-13616476D02*
X13136524Y-13616476D01*
X13155571Y-13626000D01*
X13165095Y-13635524D01*
X13174619Y-13654571D01*
X13184143Y-13692667D01*
X13184143Y-13740286D01*
X13174619Y-13778381D01*
X13165095Y-13797428D01*
X13155571Y-13806952D01*
X13136524Y-13816476D01*
X13117476Y-13816476D01*
X13098428Y-13806952D01*
X13088905Y-13797428D01*
X13079381Y-13778381D01*
X13069857Y-13740286D01*
X13069857Y-13692667D01*
X13079381Y-13654571D01*
X13088905Y-13635524D01*
X13098428Y-13626000D01*
X13117476Y-13616476D01*
X13269857Y-13797428D02*
X13279381Y-13806952D01*
X13269857Y-13816476D01*
X13260333Y-13806952D01*
X13269857Y-13797428D01*
X13269857Y-13816476D01*
X13469857Y-13816476D02*
X13355571Y-13816476D01*
X13412714Y-13816476D02*
X13412714Y-13616476D01*
X13393667Y-13645048D01*
X13374619Y-13664095D01*
X13355571Y-13673619D01*
X13546048Y-13635524D02*
X13555571Y-13626000D01*
X13574619Y-13616476D01*
X13622238Y-13616476D01*
X13641286Y-13626000D01*
X13650809Y-13635524D01*
X13660333Y-13654571D01*
X13660333Y-13673619D01*
X13650809Y-13702190D01*
X13536524Y-13816476D01*
X13660333Y-13816476D01*
X13831762Y-13616476D02*
X13793667Y-13616476D01*
X13774619Y-13626000D01*
X13765095Y-13635524D01*
X13746048Y-13664095D01*
X13736524Y-13702190D01*
X13736524Y-13778381D01*
X13746048Y-13797428D01*
X13755571Y-13806952D01*
X13774619Y-13816476D01*
X13812714Y-13816476D01*
X13831762Y-13806952D01*
X13841286Y-13797428D01*
X13850809Y-13778381D01*
X13850809Y-13730762D01*
X13841286Y-13711714D01*
X13831762Y-13702190D01*
X13812714Y-13692667D01*
X13774619Y-13692667D01*
X13755571Y-13702190D01*
X13746048Y-13711714D01*
X13736524Y-13730762D01*
X13974619Y-13616476D02*
X13993667Y-13616476D01*
X14012714Y-13626000D01*
X14022238Y-13635524D01*
X14031762Y-13654571D01*
X14041286Y-13692667D01*
X14041286Y-13740286D01*
X14031762Y-13778381D01*
X14022238Y-13797428D01*
X14012714Y-13806952D01*
X13993667Y-13816476D01*
X13974619Y-13816476D01*
X13955571Y-13806952D01*
X13946048Y-13797428D01*
X13936524Y-13778381D01*
X13927000Y-13740286D01*
X13927000Y-13692667D01*
X13936524Y-13654571D01*
X13946048Y-13635524D01*
X13955571Y-13626000D01*
X13974619Y-13616476D01*
X14117476Y-13616476D02*
X14117476Y-13654571D01*
X14193667Y-13616476D02*
X14193667Y-13654571D01*
X14488905Y-13892667D02*
X14479381Y-13883143D01*
X14460333Y-13854571D01*
X14450809Y-13835524D01*
X14441286Y-13806952D01*
X14431762Y-13759333D01*
X14431762Y-13721238D01*
X14441286Y-13673619D01*
X14450809Y-13645048D01*
X14460333Y-13626000D01*
X14479381Y-13597428D01*
X14488905Y-13587905D01*
X14555571Y-13635524D02*
X14565095Y-13626000D01*
X14584143Y-13616476D01*
X14631762Y-13616476D01*
X14650809Y-13626000D01*
X14660333Y-13635524D01*
X14669857Y-13654571D01*
X14669857Y-13673619D01*
X14660333Y-13702190D01*
X14546048Y-13816476D01*
X14669857Y-13816476D01*
X14907952Y-13816476D02*
X14907952Y-13616476D01*
X14993667Y-13816476D02*
X14993667Y-13711714D01*
X14984143Y-13692667D01*
X14965095Y-13683143D01*
X14936524Y-13683143D01*
X14917476Y-13692667D01*
X14907952Y-13702190D01*
X15117476Y-13816476D02*
X15098428Y-13806952D01*
X15088905Y-13797428D01*
X15079381Y-13778381D01*
X15079381Y-13721238D01*
X15088905Y-13702190D01*
X15098428Y-13692667D01*
X15117476Y-13683143D01*
X15146048Y-13683143D01*
X15165095Y-13692667D01*
X15174619Y-13702190D01*
X15184143Y-13721238D01*
X15184143Y-13778381D01*
X15174619Y-13797428D01*
X15165095Y-13806952D01*
X15146048Y-13816476D01*
X15117476Y-13816476D01*
X15298428Y-13816476D02*
X15279381Y-13806952D01*
X15269857Y-13787905D01*
X15269857Y-13616476D01*
X15450809Y-13806952D02*
X15431762Y-13816476D01*
X15393667Y-13816476D01*
X15374619Y-13806952D01*
X15365095Y-13787905D01*
X15365095Y-13711714D01*
X15374619Y-13692667D01*
X15393667Y-13683143D01*
X15431762Y-13683143D01*
X15450809Y-13692667D01*
X15460333Y-13711714D01*
X15460333Y-13730762D01*
X15365095Y-13749809D01*
X15536524Y-13806952D02*
X15555571Y-13816476D01*
X15593667Y-13816476D01*
X15612714Y-13806952D01*
X15622238Y-13787905D01*
X15622238Y-13778381D01*
X15612714Y-13759333D01*
X15593667Y-13749809D01*
X15565095Y-13749809D01*
X15546048Y-13740286D01*
X15536524Y-13721238D01*
X15536524Y-13711714D01*
X15546048Y-13692667D01*
X15565095Y-13683143D01*
X15593667Y-13683143D01*
X15612714Y-13692667D01*
X15688905Y-13892667D02*
X15698428Y-13883143D01*
X15717476Y-13854571D01*
X15727000Y-13835524D01*
X15736524Y-13806952D01*
X15746048Y-13759333D01*
X15746048Y-13721238D01*
X15736524Y-13673619D01*
X15727000Y-13645048D01*
X15717476Y-13626000D01*
X15698428Y-13597428D01*
X15688905Y-13587905D01*
X16050809Y-13892667D02*
X16041286Y-13883143D01*
X16022238Y-13854571D01*
X16012714Y-13835524D01*
X16003190Y-13806952D01*
X15993667Y-13759333D01*
X15993667Y-13721238D01*
X16003190Y-13673619D01*
X16012714Y-13645048D01*
X16022238Y-13626000D01*
X16041286Y-13597428D01*
X16050809Y-13587905D01*
X16127000Y-13683143D02*
X16127000Y-13816476D01*
X16127000Y-13702190D02*
X16136524Y-13692667D01*
X16155571Y-13683143D01*
X16184143Y-13683143D01*
X16203190Y-13692667D01*
X16212714Y-13711714D01*
X16212714Y-13816476D01*
X16336524Y-13816476D02*
X16317476Y-13806952D01*
X16307952Y-13797428D01*
X16298428Y-13778381D01*
X16298428Y-13721238D01*
X16307952Y-13702190D01*
X16317476Y-13692667D01*
X16336524Y-13683143D01*
X16365095Y-13683143D01*
X16384143Y-13692667D01*
X16393667Y-13702190D01*
X16403190Y-13721238D01*
X16403190Y-13778381D01*
X16393667Y-13797428D01*
X16384143Y-13806952D01*
X16365095Y-13816476D01*
X16336524Y-13816476D01*
X16460333Y-13683143D02*
X16536524Y-13683143D01*
X16488905Y-13616476D02*
X16488905Y-13787905D01*
X16498428Y-13806952D01*
X16517476Y-13816476D01*
X16536524Y-13816476D01*
X16755571Y-13683143D02*
X16755571Y-13883143D01*
X16755571Y-13692667D02*
X16774619Y-13683143D01*
X16812714Y-13683143D01*
X16831762Y-13692667D01*
X16841286Y-13702190D01*
X16850810Y-13721238D01*
X16850810Y-13778381D01*
X16841286Y-13797428D01*
X16831762Y-13806952D01*
X16812714Y-13816476D01*
X16774619Y-13816476D01*
X16755571Y-13806952D01*
X16965095Y-13816476D02*
X16946048Y-13806952D01*
X16936524Y-13787905D01*
X16936524Y-13616476D01*
X17127000Y-13816476D02*
X17127000Y-13711714D01*
X17117476Y-13692667D01*
X17098429Y-13683143D01*
X17060333Y-13683143D01*
X17041286Y-13692667D01*
X17127000Y-13806952D02*
X17107952Y-13816476D01*
X17060333Y-13816476D01*
X17041286Y-13806952D01*
X17031762Y-13787905D01*
X17031762Y-13768857D01*
X17041286Y-13749809D01*
X17060333Y-13740286D01*
X17107952Y-13740286D01*
X17127000Y-13730762D01*
X17193667Y-13683143D02*
X17269857Y-13683143D01*
X17222238Y-13616476D02*
X17222238Y-13787905D01*
X17231762Y-13806952D01*
X17250810Y-13816476D01*
X17269857Y-13816476D01*
X17412714Y-13806952D02*
X17393667Y-13816476D01*
X17355571Y-13816476D01*
X17336524Y-13806952D01*
X17327000Y-13787905D01*
X17327000Y-13711714D01*
X17336524Y-13692667D01*
X17355571Y-13683143D01*
X17393667Y-13683143D01*
X17412714Y-13692667D01*
X17422238Y-13711714D01*
X17422238Y-13730762D01*
X17327000Y-13749809D01*
X17593667Y-13816476D02*
X17593667Y-13616476D01*
X17593667Y-13806952D02*
X17574619Y-13816476D01*
X17536524Y-13816476D01*
X17517476Y-13806952D01*
X17507952Y-13797428D01*
X17498429Y-13778381D01*
X17498429Y-13721238D01*
X17507952Y-13702190D01*
X17517476Y-13692667D01*
X17536524Y-13683143D01*
X17574619Y-13683143D01*
X17593667Y-13692667D01*
X17669857Y-13892667D02*
X17679381Y-13883143D01*
X17698429Y-13854571D01*
X17707952Y-13835524D01*
X17717476Y-13806952D01*
X17727000Y-13759333D01*
X17727000Y-13721238D01*
X17717476Y-13673619D01*
X17707952Y-13645048D01*
X17698429Y-13626000D01*
X17679381Y-13597428D01*
X17669857Y-13587905D01*
M02*
