M48
; DRILL file {KiCad (6.0.11-0)} date 2023 May 07, Sunday 13:48:06
; FORMAT={-:-/ absolute / metric / decimal}
; #@! TF.CreationDate,2023-05-07T13:48:06+09:00
; #@! TF.GenerationSoftware,Kicad,Pcbnew,(6.0.11-0)
; #@! TF.FileFunction,Plated,1,2,PTH
FMAT,2
METRIC
; #@! TA.AperFunction,Plated,PTH,ComponentDrill
T1C0.800
; #@! TA.AperFunction,Plated,PTH,ComponentDrill
T2C1.020
; #@! TA.AperFunction,Plated,PTH,ComponentDrill
T3C1.550
; #@! TA.AperFunction,Plated,PTH,ComponentDrill
T4C2.100
; #@! TA.AperFunction,Plated,PTH,ComponentDrill
T5C3.100
%
G90
G05
T1
X111.76Y-120.65
X113.03Y-111.76
X115.63Y-116.205
X119.38Y-102.87
X121.92Y-99.06
X123.13Y-116.205
X123.19Y-91.44
X123.19Y-95.25
X123.27Y-107.315
X127.0Y-120.65
X133.27Y-107.315
X133.35Y-111.76
X134.62Y-102.87
X136.776Y-120.832
X137.16Y-99.06
X138.43Y-91.44
X138.43Y-95.25
X139.276Y-120.832
X147.32Y-96.07
X150.93Y-120.65
X151.19Y-91.44
X152.4Y-100.33
X153.43Y-120.65
X156.21Y-105.41
X156.21Y-110.49
X156.21Y-114.3
X156.21Y-118.11
X156.21Y-121.92
X158.69Y-91.44
X162.56Y-96.07
X166.21Y-105.41
X171.45Y-110.49
X171.45Y-114.3
X171.45Y-118.11
X171.45Y-121.92
X172.72Y-100.33
T3
X114.3Y-85.09
X125.73Y-85.09
X130.81Y-85.09
X139.7Y-85.09
X144.78Y-85.09
X153.67Y-85.09
X158.75Y-85.09
X170.18Y-85.09
T4
X144.78Y-125.73
T5
X144.78Y-109.22
T2
G00X139.024Y-107.87
M15
G01X139.336Y-106.91
M16
G05
G00X139.336Y-111.52
M15
G01X139.024Y-110.56
M16
G05
G00X140.921Y-104.757
M15
G01X141.739Y-104.163
M16
G05
G00X141.739Y-114.267
M15
G01X140.921Y-113.673
M16
G05
G00X144.275Y-103.32
M15
G01X145.285Y-103.32
M16
G05
G00X148.649Y-104.757
M15
G01X147.831Y-104.163
M16
G05
G00X147.831Y-114.267
M15
G01X148.649Y-113.673
M16
G05
G00X150.546Y-107.87
M15
G01X150.234Y-106.91
M16
G05
G00X150.234Y-111.48
M15
G01X150.546Y-110.52
M16
G05
T0
M30
