G04 #@! TF.GenerationSoftware,KiCad,Pcbnew,7.0.2-0*
G04 #@! TF.CreationDate,2023-05-17T19:53:00+03:00*
G04 #@! TF.ProjectId,tubeTest,74756265-5465-4737-942e-6b696361645f,rev?*
G04 #@! TF.SameCoordinates,Original*
G04 #@! TF.FileFunction,Soldermask,Top*
G04 #@! TF.FilePolarity,Negative*
%FSLAX46Y46*%
G04 Gerber Fmt 4.6, Leading zero omitted, Abs format (unit mm)*
G04 Created by KiCad (PCBNEW 7.0.2-0) date 2023-05-17 19:53:00*
%MOMM*%
%LPD*%
G01*
G04 APERTURE LIST*
G04 Aperture macros list*
%AMRoundRect*
0 Rectangle with rounded corners*
0 $1 Rounding radius*
0 $2 $3 $4 $5 $6 $7 $8 $9 X,Y pos of 4 corners*
0 Add a 4 corners polygon primitive as box body*
4,1,4,$2,$3,$4,$5,$6,$7,$8,$9,$2,$3,0*
0 Add four circle primitives for the rounded corners*
1,1,$1+$1,$2,$3*
1,1,$1+$1,$4,$5*
1,1,$1+$1,$6,$7*
1,1,$1+$1,$8,$9*
0 Add four rect primitives between the rounded corners*
20,1,$1+$1,$2,$3,$4,$5,0*
20,1,$1+$1,$4,$5,$6,$7,0*
20,1,$1+$1,$6,$7,$8,$9,0*
20,1,$1+$1,$8,$9,$2,$3,0*%
%AMHorizOval*
0 Thick line with rounded ends*
0 $1 width*
0 $2 $3 position (X,Y) of the first rounded end (center of the circle)*
0 $4 $5 position (X,Y) of the second rounded end (center of the circle)*
0 Add line between two ends*
20,1,$1,$2,$3,$4,$5,0*
0 Add two circle primitives to create the rounded ends*
1,1,$1,$2,$3*
1,1,$1,$4,$5*%
G04 Aperture macros list end*
%ADD10C,1.600000*%
%ADD11O,1.600000X1.600000*%
%ADD12RoundRect,0.250002X-1.499998X-1.499998X1.499998X-1.499998X1.499998X1.499998X-1.499998X1.499998X0*%
%ADD13RoundRect,0.250002X-1.699998X-1.699998X1.699998X-1.699998X1.699998X1.699998X-1.699998X1.699998X0*%
%ADD14C,3.200000*%
%ADD15HorizOval,2.030000X-0.412599X0.299770X0.412599X-0.299770X0*%
%ADD16HorizOval,2.030000X-0.157599X0.485039X0.157599X-0.485039X0*%
%ADD17HorizOval,2.030000X0.157599X0.485039X-0.157599X-0.485039X0*%
%ADD18HorizOval,2.030000X0.412599X0.299770X-0.412599X-0.299770X0*%
%ADD19O,3.050000X2.030000*%
%ADD20C,4.500000*%
%ADD21R,1.600000X1.600000*%
G04 APERTURE END LIST*
D10*
X116205000Y-106680000D03*
D11*
X131445000Y-106680000D03*
D10*
X147955000Y-92710000D03*
X157955000Y-92710000D03*
D12*
X168910000Y-85090000D03*
X133350000Y-85090000D03*
D10*
X116840000Y-119380000D03*
D11*
X132080000Y-119380000D03*
D12*
X118110000Y-85090000D03*
D10*
X139065000Y-121285000D03*
D11*
X139065000Y-128905000D03*
D13*
X143510000Y-125730000D03*
D12*
X128270000Y-85090000D03*
D10*
X147955000Y-121285000D03*
D11*
X147955000Y-128905000D03*
D10*
X156210000Y-122555000D03*
D11*
X171450000Y-122555000D03*
D10*
X124520000Y-98425000D03*
X132020000Y-98425000D03*
X118745000Y-102870000D03*
D11*
X133985000Y-102870000D03*
D10*
X167580000Y-114300000D03*
X160080000Y-114300000D03*
X156210000Y-118745000D03*
D11*
X171450000Y-118745000D03*
D14*
X164465000Y-93980000D03*
X120650000Y-125730000D03*
D12*
X158750000Y-85090000D03*
X146050000Y-85090000D03*
D10*
X116840000Y-114935000D03*
D11*
X132080000Y-114935000D03*
D12*
X153670000Y-85090000D03*
D10*
X135175000Y-93345000D03*
X125175000Y-93345000D03*
X171450000Y-109855000D03*
D11*
X156210000Y-109855000D03*
D10*
X131445000Y-110490000D03*
D11*
X116205000Y-110490000D03*
D10*
X171450000Y-106045000D03*
D11*
X156210000Y-106045000D03*
D12*
X140970000Y-85090000D03*
D10*
X171450000Y-102235000D03*
D11*
X156210000Y-102235000D03*
D15*
X137538102Y-117439612D03*
D16*
X133848170Y-112362396D03*
D17*
X133846361Y-106083171D03*
D18*
X137538102Y-101000387D03*
D19*
X143507073Y-99060000D03*
D15*
X149481898Y-101000387D03*
D16*
X153171830Y-106077604D03*
D17*
X153172734Y-112359612D03*
D18*
X149484266Y-117437892D03*
D20*
X143510000Y-109220000D03*
D21*
X133414888Y-122555000D03*
D10*
X135914888Y-122555000D03*
D21*
X153605113Y-122555000D03*
D10*
X151105113Y-122555000D03*
M02*
