G04 #@! TF.GenerationSoftware,KiCad,Pcbnew,7.0.2-0*
G04 #@! TF.CreationDate,2023-05-17T19:53:00+03:00*
G04 #@! TF.ProjectId,tubeTest,74756265-5465-4737-942e-6b696361645f,rev?*
G04 #@! TF.SameCoordinates,Original*
G04 #@! TF.FileFunction,Copper,L1,Top*
G04 #@! TF.FilePolarity,Positive*
%FSLAX46Y46*%
G04 Gerber Fmt 4.6, Leading zero omitted, Abs format (unit mm)*
G04 Created by KiCad (PCBNEW 7.0.2-0) date 2023-05-17 19:53:00*
%MOMM*%
%LPD*%
G01*
G04 APERTURE LIST*
G04 Aperture macros list*
%AMRoundRect*
0 Rectangle with rounded corners*
0 $1 Rounding radius*
0 $2 $3 $4 $5 $6 $7 $8 $9 X,Y pos of 4 corners*
0 Add a 4 corners polygon primitive as box body*
4,1,4,$2,$3,$4,$5,$6,$7,$8,$9,$2,$3,0*
0 Add four circle primitives for the rounded corners*
1,1,$1+$1,$2,$3*
1,1,$1+$1,$4,$5*
1,1,$1+$1,$6,$7*
1,1,$1+$1,$8,$9*
0 Add four rect primitives between the rounded corners*
20,1,$1+$1,$2,$3,$4,$5,0*
20,1,$1+$1,$4,$5,$6,$7,0*
20,1,$1+$1,$6,$7,$8,$9,0*
20,1,$1+$1,$8,$9,$2,$3,0*%
%AMHorizOval*
0 Thick line with rounded ends*
0 $1 width*
0 $2 $3 position (X,Y) of the first rounded end (center of the circle)*
0 $4 $5 position (X,Y) of the second rounded end (center of the circle)*
0 Add line between two ends*
20,1,$1,$2,$3,$4,$5,0*
0 Add two circle primitives to create the rounded ends*
1,1,$1,$2,$3*
1,1,$1,$4,$5*%
G04 Aperture macros list end*
G04 #@! TA.AperFunction,ComponentPad*
%ADD10C,1.600000*%
G04 #@! TD*
G04 #@! TA.AperFunction,ComponentPad*
%ADD11O,1.600000X1.600000*%
G04 #@! TD*
G04 #@! TA.AperFunction,ComponentPad*
%ADD12RoundRect,0.250002X-1.499998X-1.499998X1.499998X-1.499998X1.499998X1.499998X-1.499998X1.499998X0*%
G04 #@! TD*
G04 #@! TA.AperFunction,ComponentPad*
%ADD13RoundRect,0.250002X-1.699998X-1.699998X1.699998X-1.699998X1.699998X1.699998X-1.699998X1.699998X0*%
G04 #@! TD*
G04 #@! TA.AperFunction,ComponentPad*
%ADD14HorizOval,2.030000X-0.412599X0.299770X0.412599X-0.299770X0*%
G04 #@! TD*
G04 #@! TA.AperFunction,ComponentPad*
%ADD15HorizOval,2.030000X-0.157599X0.485039X0.157599X-0.485039X0*%
G04 #@! TD*
G04 #@! TA.AperFunction,ComponentPad*
%ADD16HorizOval,2.030000X0.157599X0.485039X-0.157599X-0.485039X0*%
G04 #@! TD*
G04 #@! TA.AperFunction,ComponentPad*
%ADD17HorizOval,2.030000X0.412599X0.299770X-0.412599X-0.299770X0*%
G04 #@! TD*
G04 #@! TA.AperFunction,ComponentPad*
%ADD18O,3.050000X2.030000*%
G04 #@! TD*
G04 #@! TA.AperFunction,ComponentPad*
%ADD19C,4.500000*%
G04 #@! TD*
G04 #@! TA.AperFunction,ComponentPad*
%ADD20R,1.600000X1.600000*%
G04 #@! TD*
G04 #@! TA.AperFunction,Conductor*
%ADD21C,0.500000*%
G04 #@! TD*
G04 #@! TA.AperFunction,Conductor*
%ADD22C,1.000000*%
G04 #@! TD*
G04 APERTURE END LIST*
D10*
X116205000Y-106680000D03*
D11*
X131445000Y-106680000D03*
D10*
X147955000Y-92710000D03*
X157955000Y-92710000D03*
D12*
X168910000Y-85090000D03*
X133350000Y-85090000D03*
D10*
X116840000Y-119380000D03*
D11*
X132080000Y-119380000D03*
D12*
X118110000Y-85090000D03*
D10*
X139065000Y-121285000D03*
D11*
X139065000Y-128905000D03*
D13*
X143510000Y-125730000D03*
D12*
X128270000Y-85090000D03*
D10*
X147955000Y-121285000D03*
D11*
X147955000Y-128905000D03*
D10*
X156210000Y-122555000D03*
D11*
X171450000Y-122555000D03*
D10*
X124520000Y-98425000D03*
X132020000Y-98425000D03*
X118745000Y-102870000D03*
D11*
X133985000Y-102870000D03*
D10*
X167580000Y-114300000D03*
X160080000Y-114300000D03*
X156210000Y-118745000D03*
D11*
X171450000Y-118745000D03*
D12*
X158750000Y-85090000D03*
X146050000Y-85090000D03*
D10*
X116840000Y-114935000D03*
D11*
X132080000Y-114935000D03*
D12*
X153670000Y-85090000D03*
D10*
X135175000Y-93345000D03*
X125175000Y-93345000D03*
X171450000Y-109855000D03*
D11*
X156210000Y-109855000D03*
D10*
X131445000Y-110490000D03*
D11*
X116205000Y-110490000D03*
D10*
X171450000Y-106045000D03*
D11*
X156210000Y-106045000D03*
D12*
X140970000Y-85090000D03*
D10*
X171450000Y-102235000D03*
D11*
X156210000Y-102235000D03*
D14*
X137538102Y-117439612D03*
D15*
X133848170Y-112362396D03*
D16*
X133846361Y-106083171D03*
D17*
X137538102Y-101000387D03*
D18*
X143507073Y-99060000D03*
D14*
X149481898Y-101000387D03*
D15*
X153171830Y-106077604D03*
D16*
X153172734Y-112359612D03*
D17*
X149484266Y-117437892D03*
D19*
X143510000Y-109220000D03*
D20*
X133414888Y-122555000D03*
D10*
X135914888Y-122555000D03*
D20*
X153605113Y-122555000D03*
D10*
X151105113Y-122555000D03*
D21*
X125095000Y-118745000D02*
X130810000Y-124460000D01*
X119380000Y-106680000D02*
X116205000Y-106680000D01*
X123825000Y-115570000D02*
X118745000Y-110490000D01*
X155575000Y-125730000D02*
X143510000Y-125730000D01*
X145415000Y-128905000D02*
X144780000Y-128270000D01*
X142240000Y-124460000D02*
X143510000Y-125730000D01*
X139065000Y-128270000D02*
X139065000Y-127000000D01*
X171450000Y-118745000D02*
X164465000Y-125730000D01*
X147357108Y-117437892D02*
X149484266Y-117437892D01*
X161290000Y-124460000D02*
X144780000Y-124460000D01*
X122555000Y-118745000D02*
X118745000Y-114935000D01*
X139065000Y-127000000D02*
X142240000Y-127000000D01*
X147955000Y-128905000D02*
X145415000Y-128905000D01*
X147357108Y-117437892D02*
X144780000Y-120015000D01*
X171450000Y-109855000D02*
X171450000Y-114935000D01*
X130810000Y-127000000D02*
X139065000Y-127000000D01*
X143510000Y-109220000D02*
X143510000Y-125730000D01*
X123825000Y-118745000D02*
X123825000Y-115570000D01*
X164465000Y-125730000D02*
X155575000Y-125730000D01*
X130810000Y-125730000D02*
X143510000Y-125730000D01*
X123825000Y-118745000D02*
X130810000Y-125730000D01*
X144780000Y-120015000D02*
X144780000Y-124460000D01*
X158115000Y-127000000D02*
X144780000Y-127000000D01*
X122555000Y-118745000D02*
X130810000Y-127000000D01*
X143510000Y-125730000D02*
X143510000Y-124460000D01*
X125095000Y-112395000D02*
X119380000Y-106680000D01*
X144780000Y-124460000D02*
X143510000Y-125730000D01*
X118745000Y-110490000D02*
X116205000Y-110490000D01*
X161925000Y-124460000D02*
X161290000Y-124460000D01*
X130810000Y-124460000D02*
X142240000Y-124460000D01*
X171450000Y-114935000D02*
X161925000Y-124460000D01*
X171450000Y-122555000D02*
X167005000Y-127000000D01*
X144780000Y-127000000D02*
X143510000Y-125730000D01*
X125095000Y-118745000D02*
X125095000Y-112395000D01*
X142240000Y-127000000D02*
X143510000Y-125730000D01*
X167005000Y-127000000D02*
X158115000Y-127000000D01*
X118745000Y-114935000D02*
X116840000Y-114935000D01*
X144780000Y-128270000D02*
X144780000Y-127000000D01*
X142240000Y-125730000D02*
X143510000Y-124460000D01*
X153172734Y-112359612D02*
X153172734Y-122122621D01*
X153605113Y-122555000D02*
X156210000Y-122555000D01*
X153172734Y-122122621D02*
X153605113Y-122555000D01*
X156210000Y-102235000D02*
X150716511Y-102235000D01*
X147955000Y-92710000D02*
X147955000Y-99473489D01*
X147955000Y-99473489D02*
X149481898Y-101000387D01*
X150716511Y-102235000D02*
X149481898Y-101000387D01*
X158750000Y-85090000D02*
X157955000Y-85885000D01*
X157955000Y-85885000D02*
X157955000Y-92710000D01*
X130175000Y-122555000D02*
X133414888Y-122555000D01*
X126365000Y-115570000D02*
X126365000Y-118745000D01*
X131445000Y-110490000D02*
X126365000Y-115570000D01*
X133846361Y-108088639D02*
X133846361Y-106083171D01*
X131445000Y-110490000D02*
X133846361Y-108088639D01*
X126365000Y-118745000D02*
X130175000Y-122555000D01*
X138430000Y-105410000D02*
X138430000Y-116547714D01*
X132080000Y-119380000D02*
X135597714Y-119380000D01*
X138430000Y-116547714D02*
X137538102Y-117439612D01*
X135175000Y-102155000D02*
X135175000Y-93345000D01*
X135175000Y-102155000D02*
X138430000Y-105410000D01*
X135597714Y-119380000D02*
X137538102Y-117439612D01*
X125175000Y-88185000D02*
X128270000Y-85090000D01*
X125175000Y-93345000D02*
X125175000Y-88185000D01*
X140970000Y-85090000D02*
X140970000Y-97568489D01*
X140970000Y-97568489D02*
X137538102Y-101000387D01*
X146050000Y-85090000D02*
X143507073Y-87632927D01*
X143507073Y-87632927D02*
X143507073Y-99060000D01*
X156210000Y-118745000D02*
X163135000Y-118745000D01*
X167580000Y-114300000D02*
X167580000Y-109915000D01*
X163135000Y-118745000D02*
X167580000Y-114300000D01*
X153670000Y-85090000D02*
X153670000Y-93980000D01*
X167580000Y-109915000D02*
X171450000Y-106045000D01*
X165735000Y-106045000D02*
X171450000Y-106045000D01*
X153670000Y-93980000D02*
X165735000Y-106045000D01*
X156210000Y-106045000D02*
X153204434Y-106045000D01*
X160080000Y-111185000D02*
X160080000Y-114300000D01*
X158750000Y-109855000D02*
X160080000Y-111185000D01*
X156210000Y-109855000D02*
X158750000Y-109855000D01*
X156210000Y-106045000D02*
X156210000Y-109855000D01*
X153204434Y-106045000D02*
X153171830Y-106077604D01*
X124520000Y-98425000D02*
X124520000Y-97095000D01*
X127000000Y-98425000D02*
X124520000Y-98425000D01*
X131445000Y-102870000D02*
X127000000Y-98425000D01*
X123190000Y-102870000D02*
X124520000Y-101540000D01*
X124520000Y-101540000D02*
X124520000Y-98425000D01*
X133350000Y-88265000D02*
X133350000Y-85090000D01*
X118745000Y-102870000D02*
X123190000Y-102870000D01*
X131445000Y-106680000D02*
X131445000Y-102870000D01*
X124520000Y-97095000D02*
X133350000Y-88265000D01*
X133985000Y-102870000D02*
X137160000Y-106045000D01*
X132020000Y-100905000D02*
X133985000Y-102870000D01*
X137160000Y-110490000D02*
X135287604Y-112362396D01*
X132080000Y-114935000D02*
X133848170Y-113166830D01*
X132020000Y-98425000D02*
X132020000Y-100905000D01*
X137160000Y-106045000D02*
X137160000Y-110490000D01*
X133848170Y-113166830D02*
X133848170Y-112362396D01*
X135287604Y-112362396D02*
X133848170Y-112362396D01*
X149835113Y-121285000D02*
X151105113Y-122555000D01*
X147955000Y-121285000D02*
X149835113Y-121285000D01*
X137184888Y-121285000D02*
X135914888Y-122555000D01*
X139065000Y-121285000D02*
X137184888Y-121285000D01*
D22*
X171450000Y-102235000D02*
X173355000Y-100330000D01*
X173355000Y-89535000D02*
X168910000Y-85090000D01*
X173355000Y-100330000D02*
X173355000Y-89535000D01*
X114300000Y-119380000D02*
X113030000Y-118110000D01*
X113030000Y-118110000D02*
X113030000Y-90170000D01*
X116840000Y-119380000D02*
X114300000Y-119380000D01*
X113030000Y-90170000D02*
X118110000Y-85090000D01*
M02*
