M48
; DRILL file {KiCad 7.0.8} date 2023 November 22, Wednesday 22:44:22
; FORMAT={-:-/ absolute / inch / decimal}
; #@! TF.CreationDate,2023-11-22T22:44:22+03:00
; #@! TF.GenerationSoftware,Kicad,Pcbnew,7.0.8
; #@! TF.FileFunction,MixedPlating,1,2
FMAT,2
INCH
; #@! TA.AperFunction,Plated,PTH,ComponentDrill
T1C0.0315
; #@! TA.AperFunction,Plated,PTH,ComponentDrill
T2C0.0402
; #@! TA.AperFunction,Plated,PTH,ComponentDrill
T3C0.0610
; #@! TA.AperFunction,Plated,PTH,ComponentDrill
T4C0.0827
; #@! TA.AperFunction,Plated,PTH,ComponentDrill
T5C0.1220
; #@! TA.AperFunction,NonPlated,NPTH,ComponentDrill
T6C0.1260
%
G90
G05
T1
X4.575Y-4.2
X4.575Y-4.35
X4.6Y-4.525
X4.6Y-4.7
X4.675Y-4.05
X4.9024Y-3.875
X4.9281Y-3.675
X5.175Y-4.2
X5.175Y-4.35
X5.1976Y-3.875
X5.2Y-4.525
X5.2Y-4.7
X5.2526Y-4.825
X5.275Y-4.05
X5.3219Y-3.675
X5.351Y-4.825
X5.4219Y-3.675
X5.4219Y-3.775
X5.475Y-4.775
X5.475Y-5.075
X5.8Y-3.8
X5.825Y-3.65
X5.825Y-4.775
X5.825Y-5.075
X5.9Y-3.8
X5.949Y-4.825
X6.0474Y-4.825
X6.15Y-4.025
X6.15Y-4.175
X6.15Y-4.325
X6.15Y-4.675
X6.15Y-4.825
X6.2187Y-3.65
X6.3024Y-4.5
X6.5976Y-4.5
X6.75Y-4.025
X6.75Y-4.175
X6.75Y-4.325
X6.75Y-4.675
X6.75Y-4.825
T3
X4.65Y-3.35
X4.85Y-3.35
X5.05Y-3.35
X5.25Y-3.35
X5.55Y-3.35
X5.75Y-3.35
X6.05Y-3.35
X6.25Y-3.35
X6.45Y-3.35
X6.65Y-3.35
T4
X5.65Y-4.95
T5
X5.65Y-4.3
T6
X4.75Y-4.95
X6.475Y-3.7
T2
G00X5.2634Y-4.1954
M15
G01X5.2757Y-4.1576
M16
G05
G00X5.2758Y-4.4426
M15
G01X5.2635Y-4.4048
M16
G05
G00X5.3988Y-3.9881
M15
G01X5.431Y-3.9647
M16
G05
G00X5.431Y-4.6353
M15
G01X5.3988Y-4.6119
M16
G05
G00X5.63Y-3.9
M15
G01X5.6698Y-3.9
M16
G05
G00X5.9012Y-3.9881
M15
G01X5.869Y-3.9647
M16
G05
G00X5.8691Y-4.6352
M15
G01X5.9013Y-4.6119
M16
G05
G00X6.0365Y-4.1952
M15
G01X6.0242Y-4.1574
M16
G05
G00X6.0243Y-4.4425
M15
G01X6.0366Y-4.4047
M16
G05
T0
M30
