G04 #@! TF.GenerationSoftware,KiCad,Pcbnew,7.0.8*
G04 #@! TF.CreationDate,2023-11-22T22:44:10+03:00*
G04 #@! TF.ProjectId,tubeTest,74756265-5465-4737-942e-6b696361645f,rev?*
G04 #@! TF.SameCoordinates,Original*
G04 #@! TF.FileFunction,Legend,Top*
G04 #@! TF.FilePolarity,Positive*
%FSLAX46Y46*%
G04 Gerber Fmt 4.6, Leading zero omitted, Abs format (unit mm)*
G04 Created by KiCad (PCBNEW 7.0.8) date 2023-11-22 22:44:10*
%MOMM*%
%LPD*%
G01*
G04 APERTURE LIST*
G04 Aperture macros list*
%AMRoundRect*
0 Rectangle with rounded corners*
0 $1 Rounding radius*
0 $2 $3 $4 $5 $6 $7 $8 $9 X,Y pos of 4 corners*
0 Add a 4 corners polygon primitive as box body*
4,1,4,$2,$3,$4,$5,$6,$7,$8,$9,$2,$3,0*
0 Add four circle primitives for the rounded corners*
1,1,$1+$1,$2,$3*
1,1,$1+$1,$4,$5*
1,1,$1+$1,$6,$7*
1,1,$1+$1,$8,$9*
0 Add four rect primitives between the rounded corners*
20,1,$1+$1,$2,$3,$4,$5,0*
20,1,$1+$1,$4,$5,$6,$7,0*
20,1,$1+$1,$6,$7,$8,$9,0*
20,1,$1+$1,$8,$9,$2,$3,0*%
%AMHorizOval*
0 Thick line with rounded ends*
0 $1 width*
0 $2 $3 position (X,Y) of the first rounded end (center of the circle)*
0 $4 $5 position (X,Y) of the second rounded end (center of the circle)*
0 Add line between two ends*
20,1,$1,$2,$3,$4,$5,0*
0 Add two circle primitives to create the rounded ends*
1,1,$1,$2,$3*
1,1,$1,$4,$5*%
G04 Aperture macros list end*
%ADD10C,0.150000*%
%ADD11C,0.120000*%
%ADD12RoundRect,0.250002X1.499998X1.499998X-1.499998X1.499998X-1.499998X-1.499998X1.499998X-1.499998X0*%
%ADD13C,1.600000*%
%ADD14O,1.600000X1.600000*%
%ADD15RoundRect,0.250002X-1.499998X-1.499998X1.499998X-1.499998X1.499998X1.499998X-1.499998X1.499998X0*%
%ADD16RoundRect,0.250002X-1.699998X-1.699998X1.699998X-1.699998X1.699998X1.699998X-1.699998X1.699998X0*%
%ADD17C,1.400000*%
%ADD18C,3.200000*%
%ADD19HorizOval,2.030000X-0.412599X0.299770X0.412599X-0.299770X0*%
%ADD20HorizOval,2.030000X-0.157599X0.485039X0.157599X-0.485039X0*%
%ADD21HorizOval,2.030000X0.157599X0.485039X-0.157599X-0.485039X0*%
%ADD22HorizOval,2.030000X0.412599X0.299770X-0.412599X-0.299770X0*%
%ADD23O,3.050000X2.030000*%
%ADD24C,4.500000*%
%ADD25R,1.600000X1.600000*%
G04 APERTURE END LIST*
D10*
X117308333Y-105414819D02*
X116975000Y-104938628D01*
X116736905Y-105414819D02*
X116736905Y-104414819D01*
X116736905Y-104414819D02*
X117117857Y-104414819D01*
X117117857Y-104414819D02*
X117213095Y-104462438D01*
X117213095Y-104462438D02*
X117260714Y-104510057D01*
X117260714Y-104510057D02*
X117308333Y-104605295D01*
X117308333Y-104605295D02*
X117308333Y-104748152D01*
X117308333Y-104748152D02*
X117260714Y-104843390D01*
X117260714Y-104843390D02*
X117213095Y-104891009D01*
X117213095Y-104891009D02*
X117117857Y-104938628D01*
X117117857Y-104938628D02*
X116736905Y-104938628D01*
X117879762Y-104843390D02*
X117784524Y-104795771D01*
X117784524Y-104795771D02*
X117736905Y-104748152D01*
X117736905Y-104748152D02*
X117689286Y-104652914D01*
X117689286Y-104652914D02*
X117689286Y-104605295D01*
X117689286Y-104605295D02*
X117736905Y-104510057D01*
X117736905Y-104510057D02*
X117784524Y-104462438D01*
X117784524Y-104462438D02*
X117879762Y-104414819D01*
X117879762Y-104414819D02*
X118070238Y-104414819D01*
X118070238Y-104414819D02*
X118165476Y-104462438D01*
X118165476Y-104462438D02*
X118213095Y-104510057D01*
X118213095Y-104510057D02*
X118260714Y-104605295D01*
X118260714Y-104605295D02*
X118260714Y-104652914D01*
X118260714Y-104652914D02*
X118213095Y-104748152D01*
X118213095Y-104748152D02*
X118165476Y-104795771D01*
X118165476Y-104795771D02*
X118070238Y-104843390D01*
X118070238Y-104843390D02*
X117879762Y-104843390D01*
X117879762Y-104843390D02*
X117784524Y-104891009D01*
X117784524Y-104891009D02*
X117736905Y-104938628D01*
X117736905Y-104938628D02*
X117689286Y-105033866D01*
X117689286Y-105033866D02*
X117689286Y-105224342D01*
X117689286Y-105224342D02*
X117736905Y-105319580D01*
X117736905Y-105319580D02*
X117784524Y-105367200D01*
X117784524Y-105367200D02*
X117879762Y-105414819D01*
X117879762Y-105414819D02*
X118070238Y-105414819D01*
X118070238Y-105414819D02*
X118165476Y-105367200D01*
X118165476Y-105367200D02*
X118213095Y-105319580D01*
X118213095Y-105319580D02*
X118260714Y-105224342D01*
X118260714Y-105224342D02*
X118260714Y-105033866D01*
X118260714Y-105033866D02*
X118213095Y-104938628D01*
X118213095Y-104938628D02*
X118165476Y-104891009D01*
X118165476Y-104891009D02*
X118070238Y-104843390D01*
X122753571Y-107134819D02*
X122277381Y-107134819D01*
X122277381Y-107134819D02*
X122277381Y-106134819D01*
X123086905Y-106611009D02*
X123420238Y-106611009D01*
X123563095Y-107134819D02*
X123086905Y-107134819D01*
X123086905Y-107134819D02*
X123086905Y-106134819D01*
X123086905Y-106134819D02*
X123563095Y-106134819D01*
X123944048Y-106849104D02*
X124420238Y-106849104D01*
X123848810Y-107134819D02*
X124182143Y-106134819D01*
X124182143Y-106134819D02*
X124515476Y-107134819D01*
X124848810Y-107134819D02*
X124848810Y-106134819D01*
X125420238Y-107134819D02*
X124991667Y-106563390D01*
X125420238Y-106134819D02*
X124848810Y-106706247D01*
X145803333Y-94339580D02*
X145755714Y-94387200D01*
X145755714Y-94387200D02*
X145612857Y-94434819D01*
X145612857Y-94434819D02*
X145517619Y-94434819D01*
X145517619Y-94434819D02*
X145374762Y-94387200D01*
X145374762Y-94387200D02*
X145279524Y-94291961D01*
X145279524Y-94291961D02*
X145231905Y-94196723D01*
X145231905Y-94196723D02*
X145184286Y-94006247D01*
X145184286Y-94006247D02*
X145184286Y-93863390D01*
X145184286Y-93863390D02*
X145231905Y-93672914D01*
X145231905Y-93672914D02*
X145279524Y-93577676D01*
X145279524Y-93577676D02*
X145374762Y-93482438D01*
X145374762Y-93482438D02*
X145517619Y-93434819D01*
X145517619Y-93434819D02*
X145612857Y-93434819D01*
X145612857Y-93434819D02*
X145755714Y-93482438D01*
X145755714Y-93482438D02*
X145803333Y-93530057D01*
X146184286Y-93530057D02*
X146231905Y-93482438D01*
X146231905Y-93482438D02*
X146327143Y-93434819D01*
X146327143Y-93434819D02*
X146565238Y-93434819D01*
X146565238Y-93434819D02*
X146660476Y-93482438D01*
X146660476Y-93482438D02*
X146708095Y-93530057D01*
X146708095Y-93530057D02*
X146755714Y-93625295D01*
X146755714Y-93625295D02*
X146755714Y-93720533D01*
X146755714Y-93720533D02*
X146708095Y-93863390D01*
X146708095Y-93863390D02*
X146136667Y-94434819D01*
X146136667Y-94434819D02*
X146755714Y-94434819D01*
X166957619Y-88494819D02*
X166957619Y-87494819D01*
X166957619Y-87971009D02*
X167529047Y-87971009D01*
X167529047Y-88494819D02*
X167529047Y-87494819D01*
X167862381Y-87494819D02*
X168433809Y-87494819D01*
X168148095Y-88494819D02*
X168148095Y-87494819D01*
X168529048Y-88590057D02*
X169290952Y-88590057D01*
X169386191Y-87494819D02*
X169719524Y-88494819D01*
X169719524Y-88494819D02*
X170052857Y-87494819D01*
X170338572Y-87590057D02*
X170386191Y-87542438D01*
X170386191Y-87542438D02*
X170481429Y-87494819D01*
X170481429Y-87494819D02*
X170719524Y-87494819D01*
X170719524Y-87494819D02*
X170814762Y-87542438D01*
X170814762Y-87542438D02*
X170862381Y-87590057D01*
X170862381Y-87590057D02*
X170910000Y-87685295D01*
X170910000Y-87685295D02*
X170910000Y-87780533D01*
X170910000Y-87780533D02*
X170862381Y-87923390D01*
X170862381Y-87923390D02*
X170290953Y-88494819D01*
X170290953Y-88494819D02*
X170910000Y-88494819D01*
X131594846Y-88551887D02*
X131594846Y-87551887D01*
X132071036Y-88551887D02*
X132071036Y-87551887D01*
X132071036Y-87551887D02*
X132642464Y-88551887D01*
X132642464Y-88551887D02*
X132642464Y-87551887D01*
X132880560Y-88647125D02*
X133642464Y-88647125D01*
X133737703Y-87551887D02*
X134071036Y-88551887D01*
X134071036Y-88551887D02*
X134404369Y-87551887D01*
X135261512Y-88551887D02*
X134690084Y-88551887D01*
X134975798Y-88551887D02*
X134975798Y-87551887D01*
X134975798Y-87551887D02*
X134880560Y-87694744D01*
X134880560Y-87694744D02*
X134785322Y-87789982D01*
X134785322Y-87789982D02*
X134690084Y-87837601D01*
X117237142Y-117929819D02*
X116903809Y-117453628D01*
X116665714Y-117929819D02*
X116665714Y-116929819D01*
X116665714Y-116929819D02*
X117046666Y-116929819D01*
X117046666Y-116929819D02*
X117141904Y-116977438D01*
X117141904Y-116977438D02*
X117189523Y-117025057D01*
X117189523Y-117025057D02*
X117237142Y-117120295D01*
X117237142Y-117120295D02*
X117237142Y-117263152D01*
X117237142Y-117263152D02*
X117189523Y-117358390D01*
X117189523Y-117358390D02*
X117141904Y-117406009D01*
X117141904Y-117406009D02*
X117046666Y-117453628D01*
X117046666Y-117453628D02*
X116665714Y-117453628D01*
X118189523Y-117929819D02*
X117618095Y-117929819D01*
X117903809Y-117929819D02*
X117903809Y-116929819D01*
X117903809Y-116929819D02*
X117808571Y-117072676D01*
X117808571Y-117072676D02*
X117713333Y-117167914D01*
X117713333Y-117167914D02*
X117618095Y-117215533D01*
X118808571Y-116929819D02*
X118903809Y-116929819D01*
X118903809Y-116929819D02*
X118999047Y-116977438D01*
X118999047Y-116977438D02*
X119046666Y-117025057D01*
X119046666Y-117025057D02*
X119094285Y-117120295D01*
X119094285Y-117120295D02*
X119141904Y-117310771D01*
X119141904Y-117310771D02*
X119141904Y-117548866D01*
X119141904Y-117548866D02*
X119094285Y-117739342D01*
X119094285Y-117739342D02*
X119046666Y-117834580D01*
X119046666Y-117834580D02*
X118999047Y-117882200D01*
X118999047Y-117882200D02*
X118903809Y-117929819D01*
X118903809Y-117929819D02*
X118808571Y-117929819D01*
X118808571Y-117929819D02*
X118713333Y-117882200D01*
X118713333Y-117882200D02*
X118665714Y-117834580D01*
X118665714Y-117834580D02*
X118618095Y-117739342D01*
X118618095Y-117739342D02*
X118570476Y-117548866D01*
X118570476Y-117548866D02*
X118570476Y-117310771D01*
X118570476Y-117310771D02*
X118618095Y-117120295D01*
X118618095Y-117120295D02*
X118665714Y-117025057D01*
X118665714Y-117025057D02*
X118713333Y-116977438D01*
X118713333Y-116977438D02*
X118808571Y-116929819D01*
X116157619Y-88494819D02*
X116157619Y-87494819D01*
X116157619Y-87971009D02*
X116729047Y-87971009D01*
X116729047Y-88494819D02*
X116729047Y-87494819D01*
X117062381Y-87494819D02*
X117633809Y-87494819D01*
X117348095Y-88494819D02*
X117348095Y-87494819D01*
X117729048Y-88590057D02*
X118490952Y-88590057D01*
X118586191Y-87494819D02*
X118919524Y-88494819D01*
X118919524Y-88494819D02*
X119252857Y-87494819D01*
X120110000Y-88494819D02*
X119538572Y-88494819D01*
X119824286Y-88494819D02*
X119824286Y-87494819D01*
X119824286Y-87494819D02*
X119729048Y-87637676D01*
X119729048Y-87637676D02*
X119633810Y-87732914D01*
X119633810Y-87732914D02*
X119538572Y-87780533D01*
X143176666Y-122034819D02*
X143176666Y-122749104D01*
X143176666Y-122749104D02*
X143129047Y-122891961D01*
X143129047Y-122891961D02*
X143033809Y-122987200D01*
X143033809Y-122987200D02*
X142890952Y-123034819D01*
X142890952Y-123034819D02*
X142795714Y-123034819D01*
X143605238Y-122130057D02*
X143652857Y-122082438D01*
X143652857Y-122082438D02*
X143748095Y-122034819D01*
X143748095Y-122034819D02*
X143986190Y-122034819D01*
X143986190Y-122034819D02*
X144081428Y-122082438D01*
X144081428Y-122082438D02*
X144129047Y-122130057D01*
X144129047Y-122130057D02*
X144176666Y-122225295D01*
X144176666Y-122225295D02*
X144176666Y-122320533D01*
X144176666Y-122320533D02*
X144129047Y-122463390D01*
X144129047Y-122463390D02*
X143557619Y-123034819D01*
X143557619Y-123034819D02*
X144176666Y-123034819D01*
X142748095Y-128382438D02*
X142652857Y-128334819D01*
X142652857Y-128334819D02*
X142510000Y-128334819D01*
X142510000Y-128334819D02*
X142367143Y-128382438D01*
X142367143Y-128382438D02*
X142271905Y-128477676D01*
X142271905Y-128477676D02*
X142224286Y-128572914D01*
X142224286Y-128572914D02*
X142176667Y-128763390D01*
X142176667Y-128763390D02*
X142176667Y-128906247D01*
X142176667Y-128906247D02*
X142224286Y-129096723D01*
X142224286Y-129096723D02*
X142271905Y-129191961D01*
X142271905Y-129191961D02*
X142367143Y-129287200D01*
X142367143Y-129287200D02*
X142510000Y-129334819D01*
X142510000Y-129334819D02*
X142605238Y-129334819D01*
X142605238Y-129334819D02*
X142748095Y-129287200D01*
X142748095Y-129287200D02*
X142795714Y-129239580D01*
X142795714Y-129239580D02*
X142795714Y-128906247D01*
X142795714Y-128906247D02*
X142605238Y-128906247D01*
X143224286Y-129334819D02*
X143224286Y-128334819D01*
X143224286Y-128334819D02*
X143795714Y-129334819D01*
X143795714Y-129334819D02*
X143795714Y-128334819D01*
X144271905Y-129334819D02*
X144271905Y-128334819D01*
X144271905Y-128334819D02*
X144510000Y-128334819D01*
X144510000Y-128334819D02*
X144652857Y-128382438D01*
X144652857Y-128382438D02*
X144748095Y-128477676D01*
X144748095Y-128477676D02*
X144795714Y-128572914D01*
X144795714Y-128572914D02*
X144843333Y-128763390D01*
X144843333Y-128763390D02*
X144843333Y-128906247D01*
X144843333Y-128906247D02*
X144795714Y-129096723D01*
X144795714Y-129096723D02*
X144748095Y-129191961D01*
X144748095Y-129191961D02*
X144652857Y-129287200D01*
X144652857Y-129287200D02*
X144510000Y-129334819D01*
X144510000Y-129334819D02*
X144271905Y-129334819D01*
X125984285Y-87494819D02*
X126174761Y-87494819D01*
X126174761Y-87494819D02*
X126269999Y-87542438D01*
X126269999Y-87542438D02*
X126365237Y-87637676D01*
X126365237Y-87637676D02*
X126412856Y-87828152D01*
X126412856Y-87828152D02*
X126412856Y-88161485D01*
X126412856Y-88161485D02*
X126365237Y-88351961D01*
X126365237Y-88351961D02*
X126269999Y-88447200D01*
X126269999Y-88447200D02*
X126174761Y-88494819D01*
X126174761Y-88494819D02*
X125984285Y-88494819D01*
X125984285Y-88494819D02*
X125889047Y-88447200D01*
X125889047Y-88447200D02*
X125793809Y-88351961D01*
X125793809Y-88351961D02*
X125746190Y-88161485D01*
X125746190Y-88161485D02*
X125746190Y-87828152D01*
X125746190Y-87828152D02*
X125793809Y-87637676D01*
X125793809Y-87637676D02*
X125889047Y-87542438D01*
X125889047Y-87542438D02*
X125984285Y-87494819D01*
X126841428Y-87494819D02*
X126841428Y-88304342D01*
X126841428Y-88304342D02*
X126889047Y-88399580D01*
X126889047Y-88399580D02*
X126936666Y-88447200D01*
X126936666Y-88447200D02*
X127031904Y-88494819D01*
X127031904Y-88494819D02*
X127222380Y-88494819D01*
X127222380Y-88494819D02*
X127317618Y-88447200D01*
X127317618Y-88447200D02*
X127365237Y-88399580D01*
X127365237Y-88399580D02*
X127412856Y-88304342D01*
X127412856Y-88304342D02*
X127412856Y-87494819D01*
X127746190Y-87494819D02*
X128317618Y-87494819D01*
X128031904Y-88494819D02*
X128031904Y-87494819D01*
X128412857Y-88590057D02*
X129174761Y-88590057D01*
X129270000Y-87494819D02*
X129603333Y-88494819D01*
X129603333Y-88494819D02*
X129936666Y-87494819D01*
X130793809Y-88494819D02*
X130222381Y-88494819D01*
X130508095Y-88494819D02*
X130508095Y-87494819D01*
X130508095Y-87494819D02*
X130412857Y-87637676D01*
X130412857Y-87637676D02*
X130317619Y-87732914D01*
X130317619Y-87732914D02*
X130222381Y-87780533D01*
X172557676Y-121147967D02*
X172224343Y-120671776D01*
X171986248Y-121147967D02*
X171986248Y-120147967D01*
X171986248Y-120147967D02*
X172367200Y-120147967D01*
X172367200Y-120147967D02*
X172462438Y-120195586D01*
X172462438Y-120195586D02*
X172510057Y-120243205D01*
X172510057Y-120243205D02*
X172557676Y-120338443D01*
X172557676Y-120338443D02*
X172557676Y-120481300D01*
X172557676Y-120481300D02*
X172510057Y-120576538D01*
X172510057Y-120576538D02*
X172462438Y-120624157D01*
X172462438Y-120624157D02*
X172367200Y-120671776D01*
X172367200Y-120671776D02*
X171986248Y-120671776D01*
X173462438Y-120147967D02*
X172986248Y-120147967D01*
X172986248Y-120147967D02*
X172938629Y-120624157D01*
X172938629Y-120624157D02*
X172986248Y-120576538D01*
X172986248Y-120576538D02*
X173081486Y-120528919D01*
X173081486Y-120528919D02*
X173319581Y-120528919D01*
X173319581Y-120528919D02*
X173414819Y-120576538D01*
X173414819Y-120576538D02*
X173462438Y-120624157D01*
X173462438Y-120624157D02*
X173510057Y-120719395D01*
X173510057Y-120719395D02*
X173510057Y-120957490D01*
X173510057Y-120957490D02*
X173462438Y-121052728D01*
X173462438Y-121052728D02*
X173414819Y-121100348D01*
X173414819Y-121100348D02*
X173319581Y-121147967D01*
X173319581Y-121147967D02*
X173081486Y-121147967D01*
X173081486Y-121147967D02*
X172986248Y-121100348D01*
X172986248Y-121100348D02*
X172938629Y-121052728D01*
X122388333Y-96244580D02*
X122340714Y-96292200D01*
X122340714Y-96292200D02*
X122197857Y-96339819D01*
X122197857Y-96339819D02*
X122102619Y-96339819D01*
X122102619Y-96339819D02*
X121959762Y-96292200D01*
X121959762Y-96292200D02*
X121864524Y-96196961D01*
X121864524Y-96196961D02*
X121816905Y-96101723D01*
X121816905Y-96101723D02*
X121769286Y-95911247D01*
X121769286Y-95911247D02*
X121769286Y-95768390D01*
X121769286Y-95768390D02*
X121816905Y-95577914D01*
X121816905Y-95577914D02*
X121864524Y-95482676D01*
X121864524Y-95482676D02*
X121959762Y-95387438D01*
X121959762Y-95387438D02*
X122102619Y-95339819D01*
X122102619Y-95339819D02*
X122197857Y-95339819D01*
X122197857Y-95339819D02*
X122340714Y-95387438D01*
X122340714Y-95387438D02*
X122388333Y-95435057D01*
X123245476Y-95339819D02*
X123055000Y-95339819D01*
X123055000Y-95339819D02*
X122959762Y-95387438D01*
X122959762Y-95387438D02*
X122912143Y-95435057D01*
X122912143Y-95435057D02*
X122816905Y-95577914D01*
X122816905Y-95577914D02*
X122769286Y-95768390D01*
X122769286Y-95768390D02*
X122769286Y-96149342D01*
X122769286Y-96149342D02*
X122816905Y-96244580D01*
X122816905Y-96244580D02*
X122864524Y-96292200D01*
X122864524Y-96292200D02*
X122959762Y-96339819D01*
X122959762Y-96339819D02*
X123150238Y-96339819D01*
X123150238Y-96339819D02*
X123245476Y-96292200D01*
X123245476Y-96292200D02*
X123293095Y-96244580D01*
X123293095Y-96244580D02*
X123340714Y-96149342D01*
X123340714Y-96149342D02*
X123340714Y-95911247D01*
X123340714Y-95911247D02*
X123293095Y-95816009D01*
X123293095Y-95816009D02*
X123245476Y-95768390D01*
X123245476Y-95768390D02*
X123150238Y-95720771D01*
X123150238Y-95720771D02*
X122959762Y-95720771D01*
X122959762Y-95720771D02*
X122864524Y-95768390D01*
X122864524Y-95768390D02*
X122816905Y-95816009D01*
X122816905Y-95816009D02*
X122769286Y-95911247D01*
X126198571Y-98356009D02*
X126341428Y-98403628D01*
X126341428Y-98403628D02*
X126389047Y-98451247D01*
X126389047Y-98451247D02*
X126436666Y-98546485D01*
X126436666Y-98546485D02*
X126436666Y-98689342D01*
X126436666Y-98689342D02*
X126389047Y-98784580D01*
X126389047Y-98784580D02*
X126341428Y-98832200D01*
X126341428Y-98832200D02*
X126246190Y-98879819D01*
X126246190Y-98879819D02*
X125865238Y-98879819D01*
X125865238Y-98879819D02*
X125865238Y-97879819D01*
X125865238Y-97879819D02*
X126198571Y-97879819D01*
X126198571Y-97879819D02*
X126293809Y-97927438D01*
X126293809Y-97927438D02*
X126341428Y-97975057D01*
X126341428Y-97975057D02*
X126389047Y-98070295D01*
X126389047Y-98070295D02*
X126389047Y-98165533D01*
X126389047Y-98165533D02*
X126341428Y-98260771D01*
X126341428Y-98260771D02*
X126293809Y-98308390D01*
X126293809Y-98308390D02*
X126198571Y-98356009D01*
X126198571Y-98356009D02*
X125865238Y-98356009D01*
X127436666Y-98879819D02*
X127103333Y-98403628D01*
X126865238Y-98879819D02*
X126865238Y-97879819D01*
X126865238Y-97879819D02*
X127246190Y-97879819D01*
X127246190Y-97879819D02*
X127341428Y-97927438D01*
X127341428Y-97927438D02*
X127389047Y-97975057D01*
X127389047Y-97975057D02*
X127436666Y-98070295D01*
X127436666Y-98070295D02*
X127436666Y-98213152D01*
X127436666Y-98213152D02*
X127389047Y-98308390D01*
X127389047Y-98308390D02*
X127341428Y-98356009D01*
X127341428Y-98356009D02*
X127246190Y-98403628D01*
X127246190Y-98403628D02*
X126865238Y-98403628D01*
X127865238Y-98879819D02*
X127865238Y-97879819D01*
X128865237Y-97927438D02*
X128769999Y-97879819D01*
X128769999Y-97879819D02*
X128627142Y-97879819D01*
X128627142Y-97879819D02*
X128484285Y-97927438D01*
X128484285Y-97927438D02*
X128389047Y-98022676D01*
X128389047Y-98022676D02*
X128341428Y-98117914D01*
X128341428Y-98117914D02*
X128293809Y-98308390D01*
X128293809Y-98308390D02*
X128293809Y-98451247D01*
X128293809Y-98451247D02*
X128341428Y-98641723D01*
X128341428Y-98641723D02*
X128389047Y-98736961D01*
X128389047Y-98736961D02*
X128484285Y-98832200D01*
X128484285Y-98832200D02*
X128627142Y-98879819D01*
X128627142Y-98879819D02*
X128722380Y-98879819D01*
X128722380Y-98879819D02*
X128865237Y-98832200D01*
X128865237Y-98832200D02*
X128912856Y-98784580D01*
X128912856Y-98784580D02*
X128912856Y-98451247D01*
X128912856Y-98451247D02*
X128722380Y-98451247D01*
X129341428Y-98879819D02*
X129341428Y-97879819D01*
X129341428Y-98356009D02*
X129912856Y-98356009D01*
X129912856Y-98879819D02*
X129912856Y-97879819D01*
X130246190Y-97879819D02*
X130817618Y-97879819D01*
X130531904Y-98879819D02*
X130531904Y-97879819D01*
X120483333Y-100784819D02*
X120150000Y-100308628D01*
X119911905Y-100784819D02*
X119911905Y-99784819D01*
X119911905Y-99784819D02*
X120292857Y-99784819D01*
X120292857Y-99784819D02*
X120388095Y-99832438D01*
X120388095Y-99832438D02*
X120435714Y-99880057D01*
X120435714Y-99880057D02*
X120483333Y-99975295D01*
X120483333Y-99975295D02*
X120483333Y-100118152D01*
X120483333Y-100118152D02*
X120435714Y-100213390D01*
X120435714Y-100213390D02*
X120388095Y-100261009D01*
X120388095Y-100261009D02*
X120292857Y-100308628D01*
X120292857Y-100308628D02*
X119911905Y-100308628D01*
X120864286Y-99880057D02*
X120911905Y-99832438D01*
X120911905Y-99832438D02*
X121007143Y-99784819D01*
X121007143Y-99784819D02*
X121245238Y-99784819D01*
X121245238Y-99784819D02*
X121340476Y-99832438D01*
X121340476Y-99832438D02*
X121388095Y-99880057D01*
X121388095Y-99880057D02*
X121435714Y-99975295D01*
X121435714Y-99975295D02*
X121435714Y-100070533D01*
X121435714Y-100070533D02*
X121388095Y-100213390D01*
X121388095Y-100213390D02*
X120816667Y-100784819D01*
X120816667Y-100784819D02*
X121435714Y-100784819D01*
X125388809Y-102372438D02*
X125293571Y-102324819D01*
X125293571Y-102324819D02*
X125150714Y-102324819D01*
X125150714Y-102324819D02*
X125007857Y-102372438D01*
X125007857Y-102372438D02*
X124912619Y-102467676D01*
X124912619Y-102467676D02*
X124865000Y-102562914D01*
X124865000Y-102562914D02*
X124817381Y-102753390D01*
X124817381Y-102753390D02*
X124817381Y-102896247D01*
X124817381Y-102896247D02*
X124865000Y-103086723D01*
X124865000Y-103086723D02*
X124912619Y-103181961D01*
X124912619Y-103181961D02*
X125007857Y-103277200D01*
X125007857Y-103277200D02*
X125150714Y-103324819D01*
X125150714Y-103324819D02*
X125245952Y-103324819D01*
X125245952Y-103324819D02*
X125388809Y-103277200D01*
X125388809Y-103277200D02*
X125436428Y-103229580D01*
X125436428Y-103229580D02*
X125436428Y-102896247D01*
X125436428Y-102896247D02*
X125245952Y-102896247D01*
X126436428Y-103324819D02*
X126103095Y-102848628D01*
X125865000Y-103324819D02*
X125865000Y-102324819D01*
X125865000Y-102324819D02*
X126245952Y-102324819D01*
X126245952Y-102324819D02*
X126341190Y-102372438D01*
X126341190Y-102372438D02*
X126388809Y-102420057D01*
X126388809Y-102420057D02*
X126436428Y-102515295D01*
X126436428Y-102515295D02*
X126436428Y-102658152D01*
X126436428Y-102658152D02*
X126388809Y-102753390D01*
X126388809Y-102753390D02*
X126341190Y-102801009D01*
X126341190Y-102801009D02*
X126245952Y-102848628D01*
X126245952Y-102848628D02*
X125865000Y-102848628D01*
X126865000Y-103324819D02*
X126865000Y-102324819D01*
X127341190Y-103324819D02*
X127341190Y-102324819D01*
X127341190Y-102324819D02*
X127579285Y-102324819D01*
X127579285Y-102324819D02*
X127722142Y-102372438D01*
X127722142Y-102372438D02*
X127817380Y-102467676D01*
X127817380Y-102467676D02*
X127864999Y-102562914D01*
X127864999Y-102562914D02*
X127912618Y-102753390D01*
X127912618Y-102753390D02*
X127912618Y-102896247D01*
X127912618Y-102896247D02*
X127864999Y-103086723D01*
X127864999Y-103086723D02*
X127817380Y-103181961D01*
X127817380Y-103181961D02*
X127722142Y-103277200D01*
X127722142Y-103277200D02*
X127579285Y-103324819D01*
X127579285Y-103324819D02*
X127341190Y-103324819D01*
X170013333Y-113389580D02*
X169965714Y-113437200D01*
X169965714Y-113437200D02*
X169822857Y-113484819D01*
X169822857Y-113484819D02*
X169727619Y-113484819D01*
X169727619Y-113484819D02*
X169584762Y-113437200D01*
X169584762Y-113437200D02*
X169489524Y-113341961D01*
X169489524Y-113341961D02*
X169441905Y-113246723D01*
X169441905Y-113246723D02*
X169394286Y-113056247D01*
X169394286Y-113056247D02*
X169394286Y-112913390D01*
X169394286Y-112913390D02*
X169441905Y-112722914D01*
X169441905Y-112722914D02*
X169489524Y-112627676D01*
X169489524Y-112627676D02*
X169584762Y-112532438D01*
X169584762Y-112532438D02*
X169727619Y-112484819D01*
X169727619Y-112484819D02*
X169822857Y-112484819D01*
X169822857Y-112484819D02*
X169965714Y-112532438D01*
X169965714Y-112532438D02*
X170013333Y-112580057D01*
X170918095Y-112484819D02*
X170441905Y-112484819D01*
X170441905Y-112484819D02*
X170394286Y-112961009D01*
X170394286Y-112961009D02*
X170441905Y-112913390D01*
X170441905Y-112913390D02*
X170537143Y-112865771D01*
X170537143Y-112865771D02*
X170775238Y-112865771D01*
X170775238Y-112865771D02*
X170870476Y-112913390D01*
X170870476Y-112913390D02*
X170918095Y-112961009D01*
X170918095Y-112961009D02*
X170965714Y-113056247D01*
X170965714Y-113056247D02*
X170965714Y-113294342D01*
X170965714Y-113294342D02*
X170918095Y-113389580D01*
X170918095Y-113389580D02*
X170870476Y-113437200D01*
X170870476Y-113437200D02*
X170775238Y-113484819D01*
X170775238Y-113484819D02*
X170537143Y-113484819D01*
X170537143Y-113484819D02*
X170441905Y-113437200D01*
X170441905Y-113437200D02*
X170394286Y-113389580D01*
X161758571Y-114231009D02*
X161901428Y-114278628D01*
X161901428Y-114278628D02*
X161949047Y-114326247D01*
X161949047Y-114326247D02*
X161996666Y-114421485D01*
X161996666Y-114421485D02*
X161996666Y-114564342D01*
X161996666Y-114564342D02*
X161949047Y-114659580D01*
X161949047Y-114659580D02*
X161901428Y-114707200D01*
X161901428Y-114707200D02*
X161806190Y-114754819D01*
X161806190Y-114754819D02*
X161425238Y-114754819D01*
X161425238Y-114754819D02*
X161425238Y-113754819D01*
X161425238Y-113754819D02*
X161758571Y-113754819D01*
X161758571Y-113754819D02*
X161853809Y-113802438D01*
X161853809Y-113802438D02*
X161901428Y-113850057D01*
X161901428Y-113850057D02*
X161949047Y-113945295D01*
X161949047Y-113945295D02*
X161949047Y-114040533D01*
X161949047Y-114040533D02*
X161901428Y-114135771D01*
X161901428Y-114135771D02*
X161853809Y-114183390D01*
X161853809Y-114183390D02*
X161758571Y-114231009D01*
X161758571Y-114231009D02*
X161425238Y-114231009D01*
X162996666Y-114754819D02*
X162663333Y-114278628D01*
X162425238Y-114754819D02*
X162425238Y-113754819D01*
X162425238Y-113754819D02*
X162806190Y-113754819D01*
X162806190Y-113754819D02*
X162901428Y-113802438D01*
X162901428Y-113802438D02*
X162949047Y-113850057D01*
X162949047Y-113850057D02*
X162996666Y-113945295D01*
X162996666Y-113945295D02*
X162996666Y-114088152D01*
X162996666Y-114088152D02*
X162949047Y-114183390D01*
X162949047Y-114183390D02*
X162901428Y-114231009D01*
X162901428Y-114231009D02*
X162806190Y-114278628D01*
X162806190Y-114278628D02*
X162425238Y-114278628D01*
X163425238Y-114754819D02*
X163425238Y-113754819D01*
X164425237Y-113802438D02*
X164329999Y-113754819D01*
X164329999Y-113754819D02*
X164187142Y-113754819D01*
X164187142Y-113754819D02*
X164044285Y-113802438D01*
X164044285Y-113802438D02*
X163949047Y-113897676D01*
X163949047Y-113897676D02*
X163901428Y-113992914D01*
X163901428Y-113992914D02*
X163853809Y-114183390D01*
X163853809Y-114183390D02*
X163853809Y-114326247D01*
X163853809Y-114326247D02*
X163901428Y-114516723D01*
X163901428Y-114516723D02*
X163949047Y-114611961D01*
X163949047Y-114611961D02*
X164044285Y-114707200D01*
X164044285Y-114707200D02*
X164187142Y-114754819D01*
X164187142Y-114754819D02*
X164282380Y-114754819D01*
X164282380Y-114754819D02*
X164425237Y-114707200D01*
X164425237Y-114707200D02*
X164472856Y-114659580D01*
X164472856Y-114659580D02*
X164472856Y-114326247D01*
X164472856Y-114326247D02*
X164282380Y-114326247D01*
X164901428Y-114754819D02*
X164901428Y-113754819D01*
X164901428Y-114231009D02*
X165472856Y-114231009D01*
X165472856Y-114754819D02*
X165472856Y-113754819D01*
X165806190Y-113754819D02*
X166377618Y-113754819D01*
X166091904Y-114754819D02*
X166091904Y-113754819D01*
X172553333Y-117479819D02*
X172220000Y-117003628D01*
X171981905Y-117479819D02*
X171981905Y-116479819D01*
X171981905Y-116479819D02*
X172362857Y-116479819D01*
X172362857Y-116479819D02*
X172458095Y-116527438D01*
X172458095Y-116527438D02*
X172505714Y-116575057D01*
X172505714Y-116575057D02*
X172553333Y-116670295D01*
X172553333Y-116670295D02*
X172553333Y-116813152D01*
X172553333Y-116813152D02*
X172505714Y-116908390D01*
X172505714Y-116908390D02*
X172458095Y-116956009D01*
X172458095Y-116956009D02*
X172362857Y-117003628D01*
X172362857Y-117003628D02*
X171981905Y-117003628D01*
X172886667Y-116479819D02*
X173505714Y-116479819D01*
X173505714Y-116479819D02*
X173172381Y-116860771D01*
X173172381Y-116860771D02*
X173315238Y-116860771D01*
X173315238Y-116860771D02*
X173410476Y-116908390D01*
X173410476Y-116908390D02*
X173458095Y-116956009D01*
X173458095Y-116956009D02*
X173505714Y-117051247D01*
X173505714Y-117051247D02*
X173505714Y-117289342D01*
X173505714Y-117289342D02*
X173458095Y-117384580D01*
X173458095Y-117384580D02*
X173410476Y-117432200D01*
X173410476Y-117432200D02*
X173315238Y-117479819D01*
X173315238Y-117479819D02*
X173029524Y-117479819D01*
X173029524Y-117479819D02*
X172934286Y-117432200D01*
X172934286Y-117432200D02*
X172886667Y-117384580D01*
X162758571Y-119199819D02*
X162282381Y-119199819D01*
X162282381Y-119199819D02*
X162282381Y-118199819D01*
X163091905Y-118676009D02*
X163425238Y-118676009D01*
X163568095Y-119199819D02*
X163091905Y-119199819D01*
X163091905Y-119199819D02*
X163091905Y-118199819D01*
X163091905Y-118199819D02*
X163568095Y-118199819D01*
X163949048Y-118914104D02*
X164425238Y-118914104D01*
X163853810Y-119199819D02*
X164187143Y-118199819D01*
X164187143Y-118199819D02*
X164520476Y-119199819D01*
X164853810Y-119199819D02*
X164853810Y-118199819D01*
X165425238Y-119199819D02*
X164996667Y-118628390D01*
X165425238Y-118199819D02*
X164853810Y-118771247D01*
X156464285Y-87494819D02*
X156654761Y-87494819D01*
X156654761Y-87494819D02*
X156749999Y-87542438D01*
X156749999Y-87542438D02*
X156845237Y-87637676D01*
X156845237Y-87637676D02*
X156892856Y-87828152D01*
X156892856Y-87828152D02*
X156892856Y-88161485D01*
X156892856Y-88161485D02*
X156845237Y-88351961D01*
X156845237Y-88351961D02*
X156749999Y-88447200D01*
X156749999Y-88447200D02*
X156654761Y-88494819D01*
X156654761Y-88494819D02*
X156464285Y-88494819D01*
X156464285Y-88494819D02*
X156369047Y-88447200D01*
X156369047Y-88447200D02*
X156273809Y-88351961D01*
X156273809Y-88351961D02*
X156226190Y-88161485D01*
X156226190Y-88161485D02*
X156226190Y-87828152D01*
X156226190Y-87828152D02*
X156273809Y-87637676D01*
X156273809Y-87637676D02*
X156369047Y-87542438D01*
X156369047Y-87542438D02*
X156464285Y-87494819D01*
X157321428Y-87494819D02*
X157321428Y-88304342D01*
X157321428Y-88304342D02*
X157369047Y-88399580D01*
X157369047Y-88399580D02*
X157416666Y-88447200D01*
X157416666Y-88447200D02*
X157511904Y-88494819D01*
X157511904Y-88494819D02*
X157702380Y-88494819D01*
X157702380Y-88494819D02*
X157797618Y-88447200D01*
X157797618Y-88447200D02*
X157845237Y-88399580D01*
X157845237Y-88399580D02*
X157892856Y-88304342D01*
X157892856Y-88304342D02*
X157892856Y-87494819D01*
X158226190Y-87494819D02*
X158797618Y-87494819D01*
X158511904Y-88494819D02*
X158511904Y-87494819D01*
X158892857Y-88590057D02*
X159654761Y-88590057D01*
X159750000Y-87494819D02*
X160083333Y-88494819D01*
X160083333Y-88494819D02*
X160416666Y-87494819D01*
X160702381Y-87590057D02*
X160750000Y-87542438D01*
X160750000Y-87542438D02*
X160845238Y-87494819D01*
X160845238Y-87494819D02*
X161083333Y-87494819D01*
X161083333Y-87494819D02*
X161178571Y-87542438D01*
X161178571Y-87542438D02*
X161226190Y-87590057D01*
X161226190Y-87590057D02*
X161273809Y-87685295D01*
X161273809Y-87685295D02*
X161273809Y-87780533D01*
X161273809Y-87780533D02*
X161226190Y-87923390D01*
X161226190Y-87923390D02*
X160654762Y-88494819D01*
X160654762Y-88494819D02*
X161273809Y-88494819D01*
X116832142Y-113484819D02*
X116498809Y-113008628D01*
X116260714Y-113484819D02*
X116260714Y-112484819D01*
X116260714Y-112484819D02*
X116641666Y-112484819D01*
X116641666Y-112484819D02*
X116736904Y-112532438D01*
X116736904Y-112532438D02*
X116784523Y-112580057D01*
X116784523Y-112580057D02*
X116832142Y-112675295D01*
X116832142Y-112675295D02*
X116832142Y-112818152D01*
X116832142Y-112818152D02*
X116784523Y-112913390D01*
X116784523Y-112913390D02*
X116736904Y-112961009D01*
X116736904Y-112961009D02*
X116641666Y-113008628D01*
X116641666Y-113008628D02*
X116260714Y-113008628D01*
X117784523Y-113484819D02*
X117213095Y-113484819D01*
X117498809Y-113484819D02*
X117498809Y-112484819D01*
X117498809Y-112484819D02*
X117403571Y-112627676D01*
X117403571Y-112627676D02*
X117308333Y-112722914D01*
X117308333Y-112722914D02*
X117213095Y-112770533D01*
X118736904Y-113484819D02*
X118165476Y-113484819D01*
X118451190Y-113484819D02*
X118451190Y-112484819D01*
X118451190Y-112484819D02*
X118355952Y-112627676D01*
X118355952Y-112627676D02*
X118260714Y-112722914D01*
X118260714Y-112722914D02*
X118165476Y-112770533D01*
X123531429Y-115389819D02*
X123531429Y-114389819D01*
X123531429Y-114389819D02*
X123769524Y-114389819D01*
X123769524Y-114389819D02*
X123912381Y-114437438D01*
X123912381Y-114437438D02*
X124007619Y-114532676D01*
X124007619Y-114532676D02*
X124055238Y-114627914D01*
X124055238Y-114627914D02*
X124102857Y-114818390D01*
X124102857Y-114818390D02*
X124102857Y-114961247D01*
X124102857Y-114961247D02*
X124055238Y-115151723D01*
X124055238Y-115151723D02*
X124007619Y-115246961D01*
X124007619Y-115246961D02*
X123912381Y-115342200D01*
X123912381Y-115342200D02*
X123769524Y-115389819D01*
X123769524Y-115389819D02*
X123531429Y-115389819D01*
X124531429Y-115389819D02*
X124531429Y-114389819D01*
X124864762Y-114389819D02*
X125198095Y-115389819D01*
X125198095Y-115389819D02*
X125531428Y-114389819D01*
X151860476Y-88494819D02*
X151860476Y-87494819D01*
X152336666Y-88494819D02*
X152336666Y-87494819D01*
X152336666Y-87494819D02*
X152908094Y-88494819D01*
X152908094Y-88494819D02*
X152908094Y-87494819D01*
X153146190Y-88590057D02*
X153908094Y-88590057D01*
X154003333Y-87494819D02*
X154336666Y-88494819D01*
X154336666Y-88494819D02*
X154669999Y-87494819D01*
X154955714Y-87590057D02*
X155003333Y-87542438D01*
X155003333Y-87542438D02*
X155098571Y-87494819D01*
X155098571Y-87494819D02*
X155336666Y-87494819D01*
X155336666Y-87494819D02*
X155431904Y-87542438D01*
X155431904Y-87542438D02*
X155479523Y-87590057D01*
X155479523Y-87590057D02*
X155527142Y-87685295D01*
X155527142Y-87685295D02*
X155527142Y-87780533D01*
X155527142Y-87780533D02*
X155479523Y-87923390D01*
X155479523Y-87923390D02*
X154908095Y-88494819D01*
X154908095Y-88494819D02*
X155527142Y-88494819D01*
X123023333Y-91799580D02*
X122975714Y-91847200D01*
X122975714Y-91847200D02*
X122832857Y-91894819D01*
X122832857Y-91894819D02*
X122737619Y-91894819D01*
X122737619Y-91894819D02*
X122594762Y-91847200D01*
X122594762Y-91847200D02*
X122499524Y-91751961D01*
X122499524Y-91751961D02*
X122451905Y-91656723D01*
X122451905Y-91656723D02*
X122404286Y-91466247D01*
X122404286Y-91466247D02*
X122404286Y-91323390D01*
X122404286Y-91323390D02*
X122451905Y-91132914D01*
X122451905Y-91132914D02*
X122499524Y-91037676D01*
X122499524Y-91037676D02*
X122594762Y-90942438D01*
X122594762Y-90942438D02*
X122737619Y-90894819D01*
X122737619Y-90894819D02*
X122832857Y-90894819D01*
X122832857Y-90894819D02*
X122975714Y-90942438D01*
X122975714Y-90942438D02*
X123023333Y-90990057D01*
X123880476Y-91228152D02*
X123880476Y-91894819D01*
X123642381Y-90847200D02*
X123404286Y-91561485D01*
X123404286Y-91561485D02*
X124023333Y-91561485D01*
X162901429Y-110309819D02*
X162901429Y-109309819D01*
X162901429Y-109309819D02*
X163139524Y-109309819D01*
X163139524Y-109309819D02*
X163282381Y-109357438D01*
X163282381Y-109357438D02*
X163377619Y-109452676D01*
X163377619Y-109452676D02*
X163425238Y-109547914D01*
X163425238Y-109547914D02*
X163472857Y-109738390D01*
X163472857Y-109738390D02*
X163472857Y-109881247D01*
X163472857Y-109881247D02*
X163425238Y-110071723D01*
X163425238Y-110071723D02*
X163377619Y-110166961D01*
X163377619Y-110166961D02*
X163282381Y-110262200D01*
X163282381Y-110262200D02*
X163139524Y-110309819D01*
X163139524Y-110309819D02*
X162901429Y-110309819D01*
X163901429Y-110309819D02*
X163901429Y-109309819D01*
X164234762Y-109309819D02*
X164568095Y-110309819D01*
X164568095Y-110309819D02*
X164901428Y-109309819D01*
X117943333Y-109224819D02*
X117610000Y-108748628D01*
X117371905Y-109224819D02*
X117371905Y-108224819D01*
X117371905Y-108224819D02*
X117752857Y-108224819D01*
X117752857Y-108224819D02*
X117848095Y-108272438D01*
X117848095Y-108272438D02*
X117895714Y-108320057D01*
X117895714Y-108320057D02*
X117943333Y-108415295D01*
X117943333Y-108415295D02*
X117943333Y-108558152D01*
X117943333Y-108558152D02*
X117895714Y-108653390D01*
X117895714Y-108653390D02*
X117848095Y-108701009D01*
X117848095Y-108701009D02*
X117752857Y-108748628D01*
X117752857Y-108748628D02*
X117371905Y-108748628D01*
X118419524Y-109224819D02*
X118610000Y-109224819D01*
X118610000Y-109224819D02*
X118705238Y-109177200D01*
X118705238Y-109177200D02*
X118752857Y-109129580D01*
X118752857Y-109129580D02*
X118848095Y-108986723D01*
X118848095Y-108986723D02*
X118895714Y-108796247D01*
X118895714Y-108796247D02*
X118895714Y-108415295D01*
X118895714Y-108415295D02*
X118848095Y-108320057D01*
X118848095Y-108320057D02*
X118800476Y-108272438D01*
X118800476Y-108272438D02*
X118705238Y-108224819D01*
X118705238Y-108224819D02*
X118514762Y-108224819D01*
X118514762Y-108224819D02*
X118419524Y-108272438D01*
X118419524Y-108272438D02*
X118371905Y-108320057D01*
X118371905Y-108320057D02*
X118324286Y-108415295D01*
X118324286Y-108415295D02*
X118324286Y-108653390D01*
X118324286Y-108653390D02*
X118371905Y-108748628D01*
X118371905Y-108748628D02*
X118419524Y-108796247D01*
X118419524Y-108796247D02*
X118514762Y-108843866D01*
X118514762Y-108843866D02*
X118705238Y-108843866D01*
X118705238Y-108843866D02*
X118800476Y-108796247D01*
X118800476Y-108796247D02*
X118848095Y-108748628D01*
X118848095Y-108748628D02*
X118895714Y-108653390D01*
X171283333Y-104779819D02*
X170950000Y-104303628D01*
X170711905Y-104779819D02*
X170711905Y-103779819D01*
X170711905Y-103779819D02*
X171092857Y-103779819D01*
X171092857Y-103779819D02*
X171188095Y-103827438D01*
X171188095Y-103827438D02*
X171235714Y-103875057D01*
X171235714Y-103875057D02*
X171283333Y-103970295D01*
X171283333Y-103970295D02*
X171283333Y-104113152D01*
X171283333Y-104113152D02*
X171235714Y-104208390D01*
X171235714Y-104208390D02*
X171188095Y-104256009D01*
X171188095Y-104256009D02*
X171092857Y-104303628D01*
X171092857Y-104303628D02*
X170711905Y-104303628D01*
X172140476Y-104113152D02*
X172140476Y-104779819D01*
X171902381Y-103732200D02*
X171664286Y-104446485D01*
X171664286Y-104446485D02*
X172283333Y-104446485D01*
X162853809Y-105547438D02*
X162758571Y-105499819D01*
X162758571Y-105499819D02*
X162615714Y-105499819D01*
X162615714Y-105499819D02*
X162472857Y-105547438D01*
X162472857Y-105547438D02*
X162377619Y-105642676D01*
X162377619Y-105642676D02*
X162330000Y-105737914D01*
X162330000Y-105737914D02*
X162282381Y-105928390D01*
X162282381Y-105928390D02*
X162282381Y-106071247D01*
X162282381Y-106071247D02*
X162330000Y-106261723D01*
X162330000Y-106261723D02*
X162377619Y-106356961D01*
X162377619Y-106356961D02*
X162472857Y-106452200D01*
X162472857Y-106452200D02*
X162615714Y-106499819D01*
X162615714Y-106499819D02*
X162710952Y-106499819D01*
X162710952Y-106499819D02*
X162853809Y-106452200D01*
X162853809Y-106452200D02*
X162901428Y-106404580D01*
X162901428Y-106404580D02*
X162901428Y-106071247D01*
X162901428Y-106071247D02*
X162710952Y-106071247D01*
X163901428Y-106499819D02*
X163568095Y-106023628D01*
X163330000Y-106499819D02*
X163330000Y-105499819D01*
X163330000Y-105499819D02*
X163710952Y-105499819D01*
X163710952Y-105499819D02*
X163806190Y-105547438D01*
X163806190Y-105547438D02*
X163853809Y-105595057D01*
X163853809Y-105595057D02*
X163901428Y-105690295D01*
X163901428Y-105690295D02*
X163901428Y-105833152D01*
X163901428Y-105833152D02*
X163853809Y-105928390D01*
X163853809Y-105928390D02*
X163806190Y-105976009D01*
X163806190Y-105976009D02*
X163710952Y-106023628D01*
X163710952Y-106023628D02*
X163330000Y-106023628D01*
X164330000Y-106499819D02*
X164330000Y-105499819D01*
X164806190Y-106499819D02*
X164806190Y-105499819D01*
X164806190Y-105499819D02*
X165044285Y-105499819D01*
X165044285Y-105499819D02*
X165187142Y-105547438D01*
X165187142Y-105547438D02*
X165282380Y-105642676D01*
X165282380Y-105642676D02*
X165329999Y-105737914D01*
X165329999Y-105737914D02*
X165377618Y-105928390D01*
X165377618Y-105928390D02*
X165377618Y-106071247D01*
X165377618Y-106071247D02*
X165329999Y-106261723D01*
X165329999Y-106261723D02*
X165282380Y-106356961D01*
X165282380Y-106356961D02*
X165187142Y-106452200D01*
X165187142Y-106452200D02*
X165044285Y-106499819D01*
X165044285Y-106499819D02*
X164806190Y-106499819D01*
X170013333Y-100969819D02*
X169680000Y-100493628D01*
X169441905Y-100969819D02*
X169441905Y-99969819D01*
X169441905Y-99969819D02*
X169822857Y-99969819D01*
X169822857Y-99969819D02*
X169918095Y-100017438D01*
X169918095Y-100017438D02*
X169965714Y-100065057D01*
X169965714Y-100065057D02*
X170013333Y-100160295D01*
X170013333Y-100160295D02*
X170013333Y-100303152D01*
X170013333Y-100303152D02*
X169965714Y-100398390D01*
X169965714Y-100398390D02*
X169918095Y-100446009D01*
X169918095Y-100446009D02*
X169822857Y-100493628D01*
X169822857Y-100493628D02*
X169441905Y-100493628D01*
X170870476Y-99969819D02*
X170680000Y-99969819D01*
X170680000Y-99969819D02*
X170584762Y-100017438D01*
X170584762Y-100017438D02*
X170537143Y-100065057D01*
X170537143Y-100065057D02*
X170441905Y-100207914D01*
X170441905Y-100207914D02*
X170394286Y-100398390D01*
X170394286Y-100398390D02*
X170394286Y-100779342D01*
X170394286Y-100779342D02*
X170441905Y-100874580D01*
X170441905Y-100874580D02*
X170489524Y-100922200D01*
X170489524Y-100922200D02*
X170584762Y-100969819D01*
X170584762Y-100969819D02*
X170775238Y-100969819D01*
X170775238Y-100969819D02*
X170870476Y-100922200D01*
X170870476Y-100922200D02*
X170918095Y-100874580D01*
X170918095Y-100874580D02*
X170965714Y-100779342D01*
X170965714Y-100779342D02*
X170965714Y-100541247D01*
X170965714Y-100541247D02*
X170918095Y-100446009D01*
X170918095Y-100446009D02*
X170870476Y-100398390D01*
X170870476Y-100398390D02*
X170775238Y-100350771D01*
X170775238Y-100350771D02*
X170584762Y-100350771D01*
X170584762Y-100350771D02*
X170489524Y-100398390D01*
X170489524Y-100398390D02*
X170441905Y-100446009D01*
X170441905Y-100446009D02*
X170394286Y-100541247D01*
D11*
X117245000Y-106680000D02*
X119205000Y-106680000D01*
X119205000Y-104960000D02*
X119205000Y-108400000D01*
X119205000Y-108400000D02*
X128445000Y-108400000D01*
X128445000Y-104960000D02*
X119205000Y-104960000D01*
X128445000Y-108400000D02*
X128445000Y-104960000D01*
X130405000Y-106680000D02*
X128445000Y-106680000D01*
X147335000Y-90490000D02*
X147335000Y-91785000D01*
X147335000Y-90490000D02*
X158575000Y-90490000D01*
X147335000Y-93635000D02*
X147335000Y-94930000D01*
X147335000Y-94930000D02*
X158575000Y-94930000D01*
X158575000Y-90490000D02*
X158575000Y-91785000D01*
X158575000Y-93635000D02*
X158575000Y-94930000D01*
X117880000Y-119380000D02*
X119840000Y-119380000D01*
X119840000Y-117660000D02*
X119840000Y-121100000D01*
X119840000Y-121100000D02*
X129080000Y-121100000D01*
X129080000Y-117660000D02*
X119840000Y-117660000D01*
X129080000Y-121100000D02*
X129080000Y-117660000D01*
X131040000Y-119380000D02*
X129080000Y-119380000D01*
X140435000Y-121825000D02*
X140435000Y-128365000D01*
X140105000Y-121825000D02*
X140435000Y-121825000D01*
X138025000Y-121825000D02*
X137695000Y-121825000D01*
X137695000Y-121825000D02*
X137695000Y-128365000D01*
X140435000Y-128365000D02*
X140105000Y-128365000D01*
X137695000Y-128365000D02*
X138025000Y-128365000D01*
D10*
X137315000Y-96915000D02*
X136815000Y-96415000D01*
X138115000Y-96915000D02*
X137315000Y-96915000D01*
X136815000Y-96415000D02*
X136815000Y-92815000D01*
X138615000Y-96415000D02*
X138115000Y-96915000D01*
X136815000Y-92815000D02*
X137315000Y-92315000D01*
X138615000Y-92815000D02*
X138615000Y-96415000D01*
X137315000Y-92315000D02*
X138115000Y-92315000D01*
X138115000Y-92315000D02*
X138615000Y-92815000D01*
X146290000Y-96120000D02*
X146790000Y-95620000D01*
X146290000Y-96920000D02*
X146290000Y-96120000D01*
X146790000Y-95620000D02*
X150390000Y-95620000D01*
X146790000Y-97420000D02*
X146290000Y-96920000D01*
X150390000Y-95620000D02*
X150890000Y-96120000D01*
X150390000Y-97420000D02*
X146790000Y-97420000D01*
X150890000Y-96120000D02*
X150890000Y-96920000D01*
X150890000Y-96920000D02*
X150390000Y-97420000D01*
D11*
X149325000Y-121825000D02*
X149325000Y-128365000D01*
X148995000Y-121825000D02*
X149325000Y-121825000D01*
X146915000Y-121825000D02*
X146585000Y-121825000D01*
X146585000Y-121825000D02*
X146585000Y-128365000D01*
X149325000Y-128365000D02*
X148995000Y-128365000D01*
X146585000Y-128365000D02*
X146915000Y-128365000D01*
X157250000Y-122555000D02*
X159210000Y-122555000D01*
X159210000Y-120835000D02*
X159210000Y-124275000D01*
X159210000Y-124275000D02*
X168450000Y-124275000D01*
X168450000Y-120835000D02*
X159210000Y-120835000D01*
X168450000Y-124275000D02*
X168450000Y-120835000D01*
X170410000Y-122555000D02*
X168450000Y-122555000D01*
X123650000Y-96205000D02*
X123650000Y-97760000D01*
X123650000Y-96205000D02*
X132890000Y-96205000D01*
X123650000Y-99090000D02*
X123650000Y-100645000D01*
X123650000Y-100645000D02*
X132890000Y-100645000D01*
X132890000Y-96205000D02*
X132890000Y-97760000D01*
X132890000Y-99090000D02*
X132890000Y-100645000D01*
X119785000Y-102870000D02*
X121745000Y-102870000D01*
X121745000Y-101150000D02*
X121745000Y-104590000D01*
X121745000Y-104590000D02*
X130985000Y-104590000D01*
X130985000Y-101150000D02*
X121745000Y-101150000D01*
X130985000Y-104590000D02*
X130985000Y-101150000D01*
X132945000Y-102870000D02*
X130985000Y-102870000D01*
X168450000Y-116520000D02*
X168450000Y-114965000D01*
X168450000Y-116520000D02*
X159210000Y-116520000D01*
X168450000Y-113635000D02*
X168450000Y-112080000D01*
X168450000Y-112080000D02*
X159210000Y-112080000D01*
X159210000Y-116520000D02*
X159210000Y-114965000D01*
X159210000Y-113635000D02*
X159210000Y-112080000D01*
X157250000Y-118745000D02*
X159210000Y-118745000D01*
X159210000Y-117025000D02*
X159210000Y-120465000D01*
X159210000Y-120465000D02*
X168450000Y-120465000D01*
X168450000Y-117025000D02*
X159210000Y-117025000D01*
X168450000Y-120465000D02*
X168450000Y-117025000D01*
X170410000Y-118745000D02*
X168450000Y-118745000D01*
X117880000Y-114935000D02*
X119840000Y-114935000D01*
X119840000Y-113215000D02*
X119840000Y-116655000D01*
X119840000Y-116655000D02*
X129080000Y-116655000D01*
X129080000Y-113215000D02*
X119840000Y-113215000D01*
X129080000Y-116655000D02*
X129080000Y-113215000D01*
X131040000Y-114935000D02*
X129080000Y-114935000D01*
X135795000Y-95565000D02*
X135795000Y-94270000D01*
X135795000Y-95565000D02*
X124555000Y-95565000D01*
X135795000Y-92420000D02*
X135795000Y-91125000D01*
X135795000Y-91125000D02*
X124555000Y-91125000D01*
X124555000Y-95565000D02*
X124555000Y-94270000D01*
X124555000Y-92420000D02*
X124555000Y-91125000D01*
X170410000Y-109855000D02*
X168450000Y-109855000D01*
X168450000Y-111575000D02*
X168450000Y-108135000D01*
X168450000Y-108135000D02*
X159210000Y-108135000D01*
X159210000Y-111575000D02*
X168450000Y-111575000D01*
X159210000Y-108135000D02*
X159210000Y-111575000D01*
X157250000Y-109855000D02*
X159210000Y-109855000D01*
X130405000Y-110490000D02*
X128445000Y-110490000D01*
X128445000Y-112210000D02*
X128445000Y-108770000D01*
X128445000Y-108770000D02*
X119205000Y-108770000D01*
X119205000Y-112210000D02*
X128445000Y-112210000D01*
X119205000Y-108770000D02*
X119205000Y-112210000D01*
X117245000Y-110490000D02*
X119205000Y-110490000D01*
X170410000Y-106045000D02*
X168450000Y-106045000D01*
X168450000Y-107765000D02*
X168450000Y-104325000D01*
X168450000Y-104325000D02*
X159210000Y-104325000D01*
X159210000Y-107765000D02*
X168450000Y-107765000D01*
X159210000Y-104325000D02*
X159210000Y-107765000D01*
X157250000Y-106045000D02*
X159210000Y-106045000D01*
X170410000Y-102235000D02*
X168450000Y-102235000D01*
X168450000Y-103955000D02*
X168450000Y-100515000D01*
X168450000Y-100515000D02*
X159210000Y-100515000D01*
X159210000Y-103955000D02*
X168450000Y-103955000D01*
X159210000Y-100515000D02*
X159210000Y-103955000D01*
X157250000Y-102235000D02*
X159210000Y-102235000D01*
%LPC*%
D12*
X163830000Y-85090000D03*
X123190000Y-85090000D03*
D13*
X116205000Y-106680000D03*
D14*
X131445000Y-106680000D03*
D13*
X147955000Y-92710000D03*
X157955000Y-92710000D03*
D15*
X168910000Y-85090000D03*
X133350000Y-85090000D03*
D13*
X116840000Y-119380000D03*
D14*
X132080000Y-119380000D03*
D15*
X118110000Y-85090000D03*
D13*
X139065000Y-121285000D03*
D14*
X139065000Y-128905000D03*
D16*
X143510000Y-125730000D03*
D17*
X137715000Y-95885000D03*
X137715000Y-93345000D03*
X147320000Y-96520000D03*
X149860000Y-96520000D03*
D15*
X128270000Y-85090000D03*
D13*
X147955000Y-121285000D03*
D14*
X147955000Y-128905000D03*
D13*
X156210000Y-122555000D03*
D14*
X171450000Y-122555000D03*
D13*
X124520000Y-98425000D03*
X132020000Y-98425000D03*
X118745000Y-102870000D03*
D14*
X133985000Y-102870000D03*
D13*
X167580000Y-114300000D03*
X160080000Y-114300000D03*
X156210000Y-118745000D03*
D14*
X171450000Y-118745000D03*
D18*
X164465000Y-93980000D03*
X120650000Y-125730000D03*
D15*
X158750000Y-85090000D03*
X146050000Y-85090000D03*
D13*
X116840000Y-114935000D03*
D14*
X132080000Y-114935000D03*
D15*
X153670000Y-85090000D03*
D13*
X135175000Y-93345000D03*
X125175000Y-93345000D03*
X171450000Y-109855000D03*
D14*
X156210000Y-109855000D03*
D13*
X131445000Y-110490000D03*
D14*
X116205000Y-110490000D03*
D13*
X171450000Y-106045000D03*
D14*
X156210000Y-106045000D03*
D15*
X140970000Y-85090000D03*
D13*
X171450000Y-102235000D03*
D14*
X156210000Y-102235000D03*
D19*
X137538102Y-117439612D03*
D20*
X133848170Y-112362396D03*
D21*
X133846361Y-106083171D03*
D22*
X137538102Y-101000387D03*
D23*
X143507073Y-99060000D03*
D19*
X149481898Y-101000387D03*
D20*
X153171830Y-106077604D03*
D21*
X153172734Y-112359612D03*
D22*
X149484266Y-117437892D03*
D24*
X143510000Y-109220000D03*
D25*
X133414888Y-122555000D03*
D13*
X135914888Y-122555000D03*
D25*
X153605113Y-122555000D03*
D13*
X151105113Y-122555000D03*
%LPD*%
M02*
