%TF.GenerationSoftware,KiCad,Pcbnew,(6.0.11-0)*%
%TF.CreationDate,2023-05-07T13:48:13+09:00*%
%TF.ProjectId,tubeTest,74756265-5465-4737-942e-6b696361645f,rev?*%
%TF.SameCoordinates,Original*%
%TF.FileFunction,Legend,Top*%
%TF.FilePolarity,Positive*%
%FSLAX46Y46*%
G04 Gerber Fmt 4.6, Leading zero omitted, Abs format (unit mm)*
G04 Created by KiCad (PCBNEW (6.0.11-0)) date 2023-05-07 13:48:13*
%MOMM*%
%LPD*%
G01*
G04 APERTURE LIST*
%ADD10C,0.150000*%
%ADD11C,0.120000*%
G04 APERTURE END LIST*
D10*
%TO.C,R8*%
X124293333Y-90172380D02*
X123960000Y-89696190D01*
X123721904Y-90172380D02*
X123721904Y-89172380D01*
X124102857Y-89172380D01*
X124198095Y-89220000D01*
X124245714Y-89267619D01*
X124293333Y-89362857D01*
X124293333Y-89505714D01*
X124245714Y-89600952D01*
X124198095Y-89648571D01*
X124102857Y-89696190D01*
X123721904Y-89696190D01*
X124864761Y-89600952D02*
X124769523Y-89553333D01*
X124721904Y-89505714D01*
X124674285Y-89410476D01*
X124674285Y-89362857D01*
X124721904Y-89267619D01*
X124769523Y-89220000D01*
X124864761Y-89172380D01*
X125055238Y-89172380D01*
X125150476Y-89220000D01*
X125198095Y-89267619D01*
X125245714Y-89362857D01*
X125245714Y-89410476D01*
X125198095Y-89505714D01*
X125150476Y-89553333D01*
X125055238Y-89600952D01*
X124864761Y-89600952D01*
X124769523Y-89648571D01*
X124721904Y-89696190D01*
X124674285Y-89791428D01*
X124674285Y-89981904D01*
X124721904Y-90077142D01*
X124769523Y-90124761D01*
X124864761Y-90172380D01*
X125055238Y-90172380D01*
X125150476Y-90124761D01*
X125198095Y-90077142D01*
X125245714Y-89981904D01*
X125245714Y-89791428D01*
X125198095Y-89696190D01*
X125150476Y-89648571D01*
X125055238Y-89600952D01*
X129738571Y-91892380D02*
X129262380Y-91892380D01*
X129262380Y-90892380D01*
X130071904Y-91368571D02*
X130405238Y-91368571D01*
X130548095Y-91892380D02*
X130071904Y-91892380D01*
X130071904Y-90892380D01*
X130548095Y-90892380D01*
X130929047Y-91606666D02*
X131405238Y-91606666D01*
X130833809Y-91892380D02*
X131167142Y-90892380D01*
X131500476Y-91892380D01*
X131833809Y-91892380D02*
X131833809Y-90892380D01*
X132405238Y-91892380D02*
X131976666Y-91320952D01*
X132405238Y-90892380D02*
X131833809Y-91463809D01*
%TO.C,C2*%
X168743333Y-104842142D02*
X168695714Y-104889761D01*
X168552857Y-104937380D01*
X168457619Y-104937380D01*
X168314761Y-104889761D01*
X168219523Y-104794523D01*
X168171904Y-104699285D01*
X168124285Y-104508809D01*
X168124285Y-104365952D01*
X168171904Y-104175476D01*
X168219523Y-104080238D01*
X168314761Y-103985000D01*
X168457619Y-103937380D01*
X168552857Y-103937380D01*
X168695714Y-103985000D01*
X168743333Y-104032619D01*
X169124285Y-104032619D02*
X169171904Y-103985000D01*
X169267142Y-103937380D01*
X169505238Y-103937380D01*
X169600476Y-103985000D01*
X169648095Y-104032619D01*
X169695714Y-104127857D01*
X169695714Y-104223095D01*
X169648095Y-104365952D01*
X169076666Y-104937380D01*
X169695714Y-104937380D01*
%TO.C,J9*%
X168227619Y-88492380D02*
X168227619Y-87492380D01*
X168227619Y-87968571D02*
X168799047Y-87968571D01*
X168799047Y-88492380D02*
X168799047Y-87492380D01*
X169132380Y-87492380D02*
X169703809Y-87492380D01*
X169418095Y-88492380D02*
X169418095Y-87492380D01*
X169799047Y-88587619D02*
X170560952Y-88587619D01*
X170656190Y-87492380D02*
X170989523Y-88492380D01*
X171322857Y-87492380D01*
X171608571Y-87587619D02*
X171656190Y-87540000D01*
X171751428Y-87492380D01*
X171989523Y-87492380D01*
X172084761Y-87540000D01*
X172132380Y-87587619D01*
X172180000Y-87682857D01*
X172180000Y-87778095D01*
X172132380Y-87920952D01*
X171560952Y-88492380D01*
X172180000Y-88492380D01*
%TO.C,J7*%
X129054846Y-88549448D02*
X129054846Y-87549448D01*
X129531036Y-88549448D02*
X129531036Y-87549448D01*
X130102465Y-88549448D01*
X130102465Y-87549448D01*
X130340560Y-88644687D02*
X131102465Y-88644687D01*
X131197703Y-87549448D02*
X131531036Y-88549448D01*
X131864370Y-87549448D01*
X132721512Y-88549448D02*
X132150084Y-88549448D01*
X132435798Y-88549448D02*
X132435798Y-87549448D01*
X132340560Y-87692306D01*
X132245322Y-87787544D01*
X132150084Y-87835163D01*
%TO.C,R10*%
X114927142Y-110492380D02*
X114593809Y-110016190D01*
X114355714Y-110492380D02*
X114355714Y-109492380D01*
X114736666Y-109492380D01*
X114831904Y-109540000D01*
X114879523Y-109587619D01*
X114927142Y-109682857D01*
X114927142Y-109825714D01*
X114879523Y-109920952D01*
X114831904Y-109968571D01*
X114736666Y-110016190D01*
X114355714Y-110016190D01*
X115879523Y-110492380D02*
X115308095Y-110492380D01*
X115593809Y-110492380D02*
X115593809Y-109492380D01*
X115498571Y-109635238D01*
X115403333Y-109730476D01*
X115308095Y-109778095D01*
X116498571Y-109492380D02*
X116593809Y-109492380D01*
X116689047Y-109540000D01*
X116736666Y-109587619D01*
X116784285Y-109682857D01*
X116831904Y-109873333D01*
X116831904Y-110111428D01*
X116784285Y-110301904D01*
X116736666Y-110397142D01*
X116689047Y-110444761D01*
X116593809Y-110492380D01*
X116498571Y-110492380D01*
X116403333Y-110444761D01*
X116355714Y-110397142D01*
X116308095Y-110301904D01*
X116260476Y-110111428D01*
X116260476Y-109873333D01*
X116308095Y-109682857D01*
X116355714Y-109587619D01*
X116403333Y-109540000D01*
X116498571Y-109492380D01*
%TO.C,J10*%
X112347619Y-88492380D02*
X112347619Y-87492380D01*
X112347619Y-87968571D02*
X112919047Y-87968571D01*
X112919047Y-88492380D02*
X112919047Y-87492380D01*
X113252380Y-87492380D02*
X113823809Y-87492380D01*
X113538095Y-88492380D02*
X113538095Y-87492380D01*
X113919047Y-88587619D02*
X114680952Y-88587619D01*
X114776190Y-87492380D02*
X115109523Y-88492380D01*
X115442857Y-87492380D01*
X116300000Y-88492380D02*
X115728571Y-88492380D01*
X116014285Y-88492380D02*
X116014285Y-87492380D01*
X115919047Y-87635238D01*
X115823809Y-87730476D01*
X115728571Y-87778095D01*
%TO.C,J2*%
X144446666Y-122032380D02*
X144446666Y-122746666D01*
X144399047Y-122889523D01*
X144303809Y-122984761D01*
X144160952Y-123032380D01*
X144065714Y-123032380D01*
X144875238Y-122127619D02*
X144922857Y-122080000D01*
X145018095Y-122032380D01*
X145256190Y-122032380D01*
X145351428Y-122080000D01*
X145399047Y-122127619D01*
X145446666Y-122222857D01*
X145446666Y-122318095D01*
X145399047Y-122460952D01*
X144827619Y-123032380D01*
X145446666Y-123032380D01*
X143184761Y-129284761D02*
X143327619Y-129332380D01*
X143565714Y-129332380D01*
X143660952Y-129284761D01*
X143708571Y-129237142D01*
X143756190Y-129141904D01*
X143756190Y-129046666D01*
X143708571Y-128951428D01*
X143660952Y-128903809D01*
X143565714Y-128856190D01*
X143375238Y-128808571D01*
X143280000Y-128760952D01*
X143232380Y-128713333D01*
X143184761Y-128618095D01*
X143184761Y-128522857D01*
X143232380Y-128427619D01*
X143280000Y-128380000D01*
X143375238Y-128332380D01*
X143613333Y-128332380D01*
X143756190Y-128380000D01*
X144041904Y-128332380D02*
X144613333Y-128332380D01*
X144327619Y-129332380D02*
X144327619Y-128332380D01*
X144899047Y-129046666D02*
X145375238Y-129046666D01*
X144803809Y-129332380D02*
X145137142Y-128332380D01*
X145470476Y-129332380D01*
X146375238Y-129332380D02*
X146041904Y-128856190D01*
X145803809Y-129332380D02*
X145803809Y-128332380D01*
X146184761Y-128332380D01*
X146280000Y-128380000D01*
X146327619Y-128427619D01*
X146375238Y-128522857D01*
X146375238Y-128665714D01*
X146327619Y-128760952D01*
X146280000Y-128808571D01*
X146184761Y-128856190D01*
X145803809Y-128856190D01*
%TO.C,J5*%
X123444285Y-87492380D02*
X123634761Y-87492380D01*
X123730000Y-87540000D01*
X123825238Y-87635238D01*
X123872857Y-87825714D01*
X123872857Y-88159047D01*
X123825238Y-88349523D01*
X123730000Y-88444761D01*
X123634761Y-88492380D01*
X123444285Y-88492380D01*
X123349047Y-88444761D01*
X123253809Y-88349523D01*
X123206190Y-88159047D01*
X123206190Y-87825714D01*
X123253809Y-87635238D01*
X123349047Y-87540000D01*
X123444285Y-87492380D01*
X124301428Y-87492380D02*
X124301428Y-88301904D01*
X124349047Y-88397142D01*
X124396666Y-88444761D01*
X124491904Y-88492380D01*
X124682380Y-88492380D01*
X124777619Y-88444761D01*
X124825238Y-88397142D01*
X124872857Y-88301904D01*
X124872857Y-87492380D01*
X125206190Y-87492380D02*
X125777619Y-87492380D01*
X125491904Y-88492380D02*
X125491904Y-87492380D01*
X125872857Y-88587619D02*
X126634761Y-88587619D01*
X126730000Y-87492380D02*
X127063333Y-88492380D01*
X127396666Y-87492380D01*
X128253809Y-88492380D02*
X127682380Y-88492380D01*
X127968095Y-88492380D02*
X127968095Y-87492380D01*
X127872857Y-87635238D01*
X127777619Y-87730476D01*
X127682380Y-87778095D01*
%TO.C,R5*%
X172557676Y-120510528D02*
X172224343Y-120034338D01*
X171986247Y-120510528D02*
X171986247Y-119510528D01*
X172367200Y-119510528D01*
X172462438Y-119558148D01*
X172510057Y-119605767D01*
X172557676Y-119701005D01*
X172557676Y-119843862D01*
X172510057Y-119939100D01*
X172462438Y-119986719D01*
X172367200Y-120034338D01*
X171986247Y-120034338D01*
X173462438Y-119510528D02*
X172986247Y-119510528D01*
X172938628Y-119986719D01*
X172986247Y-119939100D01*
X173081485Y-119891481D01*
X173319581Y-119891481D01*
X173414819Y-119939100D01*
X173462438Y-119986719D01*
X173510057Y-120081957D01*
X173510057Y-120320052D01*
X173462438Y-120415290D01*
X173414819Y-120462909D01*
X173319581Y-120510528D01*
X173081485Y-120510528D01*
X172986247Y-120462909D01*
X172938628Y-120415290D01*
%TO.C,C6*%
X125443333Y-116562142D02*
X125395714Y-116609761D01*
X125252857Y-116657380D01*
X125157619Y-116657380D01*
X125014761Y-116609761D01*
X124919523Y-116514523D01*
X124871904Y-116419285D01*
X124824285Y-116228809D01*
X124824285Y-116085952D01*
X124871904Y-115895476D01*
X124919523Y-115800238D01*
X125014761Y-115705000D01*
X125157619Y-115657380D01*
X125252857Y-115657380D01*
X125395714Y-115705000D01*
X125443333Y-115752619D01*
X126300476Y-115657380D02*
X126110000Y-115657380D01*
X126014761Y-115705000D01*
X125967142Y-115752619D01*
X125871904Y-115895476D01*
X125824285Y-116085952D01*
X125824285Y-116466904D01*
X125871904Y-116562142D01*
X125919523Y-116609761D01*
X126014761Y-116657380D01*
X126205238Y-116657380D01*
X126300476Y-116609761D01*
X126348095Y-116562142D01*
X126395714Y-116466904D01*
X126395714Y-116228809D01*
X126348095Y-116133571D01*
X126300476Y-116085952D01*
X126205238Y-116038333D01*
X126014761Y-116038333D01*
X125919523Y-116085952D01*
X125871904Y-116133571D01*
X125824285Y-116228809D01*
X117308571Y-116133571D02*
X117451428Y-116181190D01*
X117499047Y-116228809D01*
X117546666Y-116324047D01*
X117546666Y-116466904D01*
X117499047Y-116562142D01*
X117451428Y-116609761D01*
X117356190Y-116657380D01*
X116975238Y-116657380D01*
X116975238Y-115657380D01*
X117308571Y-115657380D01*
X117403809Y-115705000D01*
X117451428Y-115752619D01*
X117499047Y-115847857D01*
X117499047Y-115943095D01*
X117451428Y-116038333D01*
X117403809Y-116085952D01*
X117308571Y-116133571D01*
X116975238Y-116133571D01*
X118546666Y-116657380D02*
X118213333Y-116181190D01*
X117975238Y-116657380D02*
X117975238Y-115657380D01*
X118356190Y-115657380D01*
X118451428Y-115705000D01*
X118499047Y-115752619D01*
X118546666Y-115847857D01*
X118546666Y-115990714D01*
X118499047Y-116085952D01*
X118451428Y-116133571D01*
X118356190Y-116181190D01*
X117975238Y-116181190D01*
X118975238Y-116657380D02*
X118975238Y-115657380D01*
X119975238Y-115705000D02*
X119880000Y-115657380D01*
X119737142Y-115657380D01*
X119594285Y-115705000D01*
X119499047Y-115800238D01*
X119451428Y-115895476D01*
X119403809Y-116085952D01*
X119403809Y-116228809D01*
X119451428Y-116419285D01*
X119499047Y-116514523D01*
X119594285Y-116609761D01*
X119737142Y-116657380D01*
X119832380Y-116657380D01*
X119975238Y-116609761D01*
X120022857Y-116562142D01*
X120022857Y-116228809D01*
X119832380Y-116228809D01*
X120451428Y-116657380D02*
X120451428Y-115657380D01*
X120451428Y-116133571D02*
X121022857Y-116133571D01*
X121022857Y-116657380D02*
X121022857Y-115657380D01*
X121356190Y-115657380D02*
X121927619Y-115657380D01*
X121641904Y-116657380D02*
X121641904Y-115657380D01*
%TO.C,R2*%
X123773333Y-100782380D02*
X123440000Y-100306190D01*
X123201904Y-100782380D02*
X123201904Y-99782380D01*
X123582857Y-99782380D01*
X123678095Y-99830000D01*
X123725714Y-99877619D01*
X123773333Y-99972857D01*
X123773333Y-100115714D01*
X123725714Y-100210952D01*
X123678095Y-100258571D01*
X123582857Y-100306190D01*
X123201904Y-100306190D01*
X124154285Y-99877619D02*
X124201904Y-99830000D01*
X124297142Y-99782380D01*
X124535238Y-99782380D01*
X124630476Y-99830000D01*
X124678095Y-99877619D01*
X124725714Y-99972857D01*
X124725714Y-100068095D01*
X124678095Y-100210952D01*
X124106666Y-100782380D01*
X124725714Y-100782380D01*
X128563809Y-98560000D02*
X128468571Y-98512380D01*
X128325714Y-98512380D01*
X128182857Y-98560000D01*
X128087619Y-98655238D01*
X128040000Y-98750476D01*
X127992380Y-98940952D01*
X127992380Y-99083809D01*
X128040000Y-99274285D01*
X128087619Y-99369523D01*
X128182857Y-99464761D01*
X128325714Y-99512380D01*
X128420952Y-99512380D01*
X128563809Y-99464761D01*
X128611428Y-99417142D01*
X128611428Y-99083809D01*
X128420952Y-99083809D01*
X129611428Y-99512380D02*
X129278095Y-99036190D01*
X129040000Y-99512380D02*
X129040000Y-98512380D01*
X129420952Y-98512380D01*
X129516190Y-98560000D01*
X129563809Y-98607619D01*
X129611428Y-98702857D01*
X129611428Y-98845714D01*
X129563809Y-98940952D01*
X129516190Y-98988571D01*
X129420952Y-99036190D01*
X129040000Y-99036190D01*
X130040000Y-99512380D02*
X130040000Y-98512380D01*
X130516190Y-99512380D02*
X130516190Y-98512380D01*
X130754285Y-98512380D01*
X130897142Y-98560000D01*
X130992380Y-98655238D01*
X131040000Y-98750476D01*
X131087619Y-98940952D01*
X131087619Y-99083809D01*
X131040000Y-99274285D01*
X130992380Y-99369523D01*
X130897142Y-99464761D01*
X130754285Y-99512380D01*
X130516190Y-99512380D01*
%TO.C,C5*%
X161123333Y-90527142D02*
X161075714Y-90574761D01*
X160932857Y-90622380D01*
X160837619Y-90622380D01*
X160694761Y-90574761D01*
X160599523Y-90479523D01*
X160551904Y-90384285D01*
X160504285Y-90193809D01*
X160504285Y-90050952D01*
X160551904Y-89860476D01*
X160599523Y-89765238D01*
X160694761Y-89670000D01*
X160837619Y-89622380D01*
X160932857Y-89622380D01*
X161075714Y-89670000D01*
X161123333Y-89717619D01*
X162028095Y-89622380D02*
X161551904Y-89622380D01*
X161504285Y-90098571D01*
X161551904Y-90050952D01*
X161647142Y-90003333D01*
X161885238Y-90003333D01*
X161980476Y-90050952D01*
X162028095Y-90098571D01*
X162075714Y-90193809D01*
X162075714Y-90431904D01*
X162028095Y-90527142D01*
X161980476Y-90574761D01*
X161885238Y-90622380D01*
X161647142Y-90622380D01*
X161551904Y-90574761D01*
X161504285Y-90527142D01*
X152868571Y-91368571D02*
X153011428Y-91416190D01*
X153059047Y-91463809D01*
X153106666Y-91559047D01*
X153106666Y-91701904D01*
X153059047Y-91797142D01*
X153011428Y-91844761D01*
X152916190Y-91892380D01*
X152535238Y-91892380D01*
X152535238Y-90892380D01*
X152868571Y-90892380D01*
X152963809Y-90940000D01*
X153011428Y-90987619D01*
X153059047Y-91082857D01*
X153059047Y-91178095D01*
X153011428Y-91273333D01*
X152963809Y-91320952D01*
X152868571Y-91368571D01*
X152535238Y-91368571D01*
X154106666Y-91892380D02*
X153773333Y-91416190D01*
X153535238Y-91892380D02*
X153535238Y-90892380D01*
X153916190Y-90892380D01*
X154011428Y-90940000D01*
X154059047Y-90987619D01*
X154106666Y-91082857D01*
X154106666Y-91225714D01*
X154059047Y-91320952D01*
X154011428Y-91368571D01*
X153916190Y-91416190D01*
X153535238Y-91416190D01*
X154535238Y-91892380D02*
X154535238Y-90892380D01*
X155535238Y-90940000D02*
X155440000Y-90892380D01*
X155297142Y-90892380D01*
X155154285Y-90940000D01*
X155059047Y-91035238D01*
X155011428Y-91130476D01*
X154963809Y-91320952D01*
X154963809Y-91463809D01*
X155011428Y-91654285D01*
X155059047Y-91749523D01*
X155154285Y-91844761D01*
X155297142Y-91892380D01*
X155392380Y-91892380D01*
X155535238Y-91844761D01*
X155582857Y-91797142D01*
X155582857Y-91463809D01*
X155392380Y-91463809D01*
X156011428Y-91892380D02*
X156011428Y-90892380D01*
X156011428Y-91368571D02*
X156582857Y-91368571D01*
X156582857Y-91892380D02*
X156582857Y-90892380D01*
X156916190Y-90892380D02*
X157487619Y-90892380D01*
X157201904Y-91892380D02*
X157201904Y-90892380D01*
%TO.C,R3*%
X172553333Y-116842380D02*
X172220000Y-116366190D01*
X171981904Y-116842380D02*
X171981904Y-115842380D01*
X172362857Y-115842380D01*
X172458095Y-115890000D01*
X172505714Y-115937619D01*
X172553333Y-116032857D01*
X172553333Y-116175714D01*
X172505714Y-116270952D01*
X172458095Y-116318571D01*
X172362857Y-116366190D01*
X171981904Y-116366190D01*
X172886666Y-115842380D02*
X173505714Y-115842380D01*
X173172380Y-116223333D01*
X173315238Y-116223333D01*
X173410476Y-116270952D01*
X173458095Y-116318571D01*
X173505714Y-116413809D01*
X173505714Y-116651904D01*
X173458095Y-116747142D01*
X173410476Y-116794761D01*
X173315238Y-116842380D01*
X173029523Y-116842380D01*
X172934285Y-116794761D01*
X172886666Y-116747142D01*
X162758571Y-118562380D02*
X162282380Y-118562380D01*
X162282380Y-117562380D01*
X163091904Y-118038571D02*
X163425238Y-118038571D01*
X163568095Y-118562380D02*
X163091904Y-118562380D01*
X163091904Y-117562380D01*
X163568095Y-117562380D01*
X163949047Y-118276666D02*
X164425238Y-118276666D01*
X163853809Y-118562380D02*
X164187142Y-117562380D01*
X164520476Y-118562380D01*
X164853809Y-118562380D02*
X164853809Y-117562380D01*
X165425238Y-118562380D02*
X164996666Y-117990952D01*
X165425238Y-117562380D02*
X164853809Y-118133809D01*
%TO.C,J8*%
X151384285Y-87492380D02*
X151574761Y-87492380D01*
X151670000Y-87540000D01*
X151765238Y-87635238D01*
X151812857Y-87825714D01*
X151812857Y-88159047D01*
X151765238Y-88349523D01*
X151670000Y-88444761D01*
X151574761Y-88492380D01*
X151384285Y-88492380D01*
X151289047Y-88444761D01*
X151193809Y-88349523D01*
X151146190Y-88159047D01*
X151146190Y-87825714D01*
X151193809Y-87635238D01*
X151289047Y-87540000D01*
X151384285Y-87492380D01*
X152241428Y-87492380D02*
X152241428Y-88301904D01*
X152289047Y-88397142D01*
X152336666Y-88444761D01*
X152431904Y-88492380D01*
X152622380Y-88492380D01*
X152717619Y-88444761D01*
X152765238Y-88397142D01*
X152812857Y-88301904D01*
X152812857Y-87492380D01*
X153146190Y-87492380D02*
X153717619Y-87492380D01*
X153431904Y-88492380D02*
X153431904Y-87492380D01*
X153812857Y-88587619D02*
X154574761Y-88587619D01*
X154670000Y-87492380D02*
X155003333Y-88492380D01*
X155336666Y-87492380D01*
X155622380Y-87587619D02*
X155670000Y-87540000D01*
X155765238Y-87492380D01*
X156003333Y-87492380D01*
X156098571Y-87540000D01*
X156146190Y-87587619D01*
X156193809Y-87682857D01*
X156193809Y-87778095D01*
X156146190Y-87920952D01*
X155574761Y-88492380D01*
X156193809Y-88492380D01*
%TO.C,C3*%
X134069728Y-121189642D02*
X134022109Y-121237261D01*
X133879252Y-121284880D01*
X133784014Y-121284880D01*
X133641156Y-121237261D01*
X133545918Y-121142023D01*
X133498299Y-121046785D01*
X133450680Y-120856309D01*
X133450680Y-120713452D01*
X133498299Y-120522976D01*
X133545918Y-120427738D01*
X133641156Y-120332500D01*
X133784014Y-120284880D01*
X133879252Y-120284880D01*
X134022109Y-120332500D01*
X134069728Y-120380119D01*
X134403061Y-120284880D02*
X135022109Y-120284880D01*
X134688775Y-120665833D01*
X134831633Y-120665833D01*
X134926871Y-120713452D01*
X134974490Y-120761071D01*
X135022109Y-120856309D01*
X135022109Y-121094404D01*
X134974490Y-121189642D01*
X134926871Y-121237261D01*
X134831633Y-121284880D01*
X134545918Y-121284880D01*
X134450680Y-121237261D01*
X134403061Y-121189642D01*
%TO.C,R11*%
X120007142Y-105042380D02*
X119673809Y-104566190D01*
X119435714Y-105042380D02*
X119435714Y-104042380D01*
X119816666Y-104042380D01*
X119911904Y-104090000D01*
X119959523Y-104137619D01*
X120007142Y-104232857D01*
X120007142Y-104375714D01*
X119959523Y-104470952D01*
X119911904Y-104518571D01*
X119816666Y-104566190D01*
X119435714Y-104566190D01*
X120959523Y-105042380D02*
X120388095Y-105042380D01*
X120673809Y-105042380D02*
X120673809Y-104042380D01*
X120578571Y-104185238D01*
X120483333Y-104280476D01*
X120388095Y-104328095D01*
X121911904Y-105042380D02*
X121340476Y-105042380D01*
X121626190Y-105042380D02*
X121626190Y-104042380D01*
X121530952Y-104185238D01*
X121435714Y-104280476D01*
X121340476Y-104328095D01*
X126071428Y-103322380D02*
X126071428Y-102322380D01*
X126309523Y-102322380D01*
X126452380Y-102370000D01*
X126547619Y-102465238D01*
X126595238Y-102560476D01*
X126642857Y-102750952D01*
X126642857Y-102893809D01*
X126595238Y-103084285D01*
X126547619Y-103179523D01*
X126452380Y-103274761D01*
X126309523Y-103322380D01*
X126071428Y-103322380D01*
X127071428Y-103322380D02*
X127071428Y-102322380D01*
X127404761Y-102322380D02*
X127738095Y-103322380D01*
X128071428Y-102322380D01*
%TO.C,J1*%
X156940476Y-88492380D02*
X156940476Y-87492380D01*
X157416666Y-88492380D02*
X157416666Y-87492380D01*
X157988095Y-88492380D01*
X157988095Y-87492380D01*
X158226190Y-88587619D02*
X158988095Y-88587619D01*
X159083333Y-87492380D02*
X159416666Y-88492380D01*
X159750000Y-87492380D01*
X160035714Y-87587619D02*
X160083333Y-87540000D01*
X160178571Y-87492380D01*
X160416666Y-87492380D01*
X160511904Y-87540000D01*
X160559523Y-87587619D01*
X160607142Y-87682857D01*
X160607142Y-87778095D01*
X160559523Y-87920952D01*
X159988095Y-88492380D01*
X160607142Y-88492380D01*
%TO.C,C4*%
X120403333Y-107672142D02*
X120355714Y-107719761D01*
X120212857Y-107767380D01*
X120117619Y-107767380D01*
X119974761Y-107719761D01*
X119879523Y-107624523D01*
X119831904Y-107529285D01*
X119784285Y-107338809D01*
X119784285Y-107195952D01*
X119831904Y-107005476D01*
X119879523Y-106910238D01*
X119974761Y-106815000D01*
X120117619Y-106767380D01*
X120212857Y-106767380D01*
X120355714Y-106815000D01*
X120403333Y-106862619D01*
X121260476Y-107100714D02*
X121260476Y-107767380D01*
X121022380Y-106719761D02*
X120784285Y-107434047D01*
X121403333Y-107434047D01*
%TO.C,R12*%
X114292142Y-123642380D02*
X113958809Y-123166190D01*
X113720714Y-123642380D02*
X113720714Y-122642380D01*
X114101666Y-122642380D01*
X114196904Y-122690000D01*
X114244523Y-122737619D01*
X114292142Y-122832857D01*
X114292142Y-122975714D01*
X114244523Y-123070952D01*
X114196904Y-123118571D01*
X114101666Y-123166190D01*
X113720714Y-123166190D01*
X115244523Y-123642380D02*
X114673095Y-123642380D01*
X114958809Y-123642380D02*
X114958809Y-122642380D01*
X114863571Y-122785238D01*
X114768333Y-122880476D01*
X114673095Y-122928095D01*
X115625476Y-122737619D02*
X115673095Y-122690000D01*
X115768333Y-122642380D01*
X116006428Y-122642380D01*
X116101666Y-122690000D01*
X116149285Y-122737619D01*
X116196904Y-122832857D01*
X116196904Y-122928095D01*
X116149285Y-123070952D01*
X115577857Y-123642380D01*
X116196904Y-123642380D01*
%TO.C,R1*%
X162901428Y-114752380D02*
X162901428Y-113752380D01*
X163139523Y-113752380D01*
X163282380Y-113800000D01*
X163377619Y-113895238D01*
X163425238Y-113990476D01*
X163472857Y-114180952D01*
X163472857Y-114323809D01*
X163425238Y-114514285D01*
X163377619Y-114609523D01*
X163282380Y-114704761D01*
X163139523Y-114752380D01*
X162901428Y-114752380D01*
X163901428Y-114752380D02*
X163901428Y-113752380D01*
X164234761Y-113752380D02*
X164568095Y-114752380D01*
X164901428Y-113752380D01*
%TO.C,C1*%
X152013333Y-124757142D02*
X151965714Y-124804761D01*
X151822857Y-124852380D01*
X151727619Y-124852380D01*
X151584761Y-124804761D01*
X151489523Y-124709523D01*
X151441904Y-124614285D01*
X151394285Y-124423809D01*
X151394285Y-124280952D01*
X151441904Y-124090476D01*
X151489523Y-123995238D01*
X151584761Y-123900000D01*
X151727619Y-123852380D01*
X151822857Y-123852380D01*
X151965714Y-123900000D01*
X152013333Y-123947619D01*
X152965714Y-124852380D02*
X152394285Y-124852380D01*
X152680000Y-124852380D02*
X152680000Y-123852380D01*
X152584761Y-123995238D01*
X152489523Y-124090476D01*
X152394285Y-124138095D01*
%TO.C,R9*%
X136993333Y-93982380D02*
X136660000Y-93506190D01*
X136421904Y-93982380D02*
X136421904Y-92982380D01*
X136802857Y-92982380D01*
X136898095Y-93030000D01*
X136945714Y-93077619D01*
X136993333Y-93172857D01*
X136993333Y-93315714D01*
X136945714Y-93410952D01*
X136898095Y-93458571D01*
X136802857Y-93506190D01*
X136421904Y-93506190D01*
X137469523Y-93982380D02*
X137660000Y-93982380D01*
X137755238Y-93934761D01*
X137802857Y-93887142D01*
X137898095Y-93744285D01*
X137945714Y-93553809D01*
X137945714Y-93172857D01*
X137898095Y-93077619D01*
X137850476Y-93030000D01*
X137755238Y-92982380D01*
X137564761Y-92982380D01*
X137469523Y-93030000D01*
X137421904Y-93077619D01*
X137374285Y-93172857D01*
X137374285Y-93410952D01*
X137421904Y-93506190D01*
X137469523Y-93553809D01*
X137564761Y-93601428D01*
X137755238Y-93601428D01*
X137850476Y-93553809D01*
X137898095Y-93506190D01*
X137945714Y-93410952D01*
%TO.C,R4*%
X171283333Y-109222380D02*
X170950000Y-108746190D01*
X170711904Y-109222380D02*
X170711904Y-108222380D01*
X171092857Y-108222380D01*
X171188095Y-108270000D01*
X171235714Y-108317619D01*
X171283333Y-108412857D01*
X171283333Y-108555714D01*
X171235714Y-108650952D01*
X171188095Y-108698571D01*
X171092857Y-108746190D01*
X170711904Y-108746190D01*
X172140476Y-108555714D02*
X172140476Y-109222380D01*
X171902380Y-108174761D02*
X171664285Y-108889047D01*
X172283333Y-108889047D01*
X162853809Y-109990000D02*
X162758571Y-109942380D01*
X162615714Y-109942380D01*
X162472857Y-109990000D01*
X162377619Y-110085238D01*
X162330000Y-110180476D01*
X162282380Y-110370952D01*
X162282380Y-110513809D01*
X162330000Y-110704285D01*
X162377619Y-110799523D01*
X162472857Y-110894761D01*
X162615714Y-110942380D01*
X162710952Y-110942380D01*
X162853809Y-110894761D01*
X162901428Y-110847142D01*
X162901428Y-110513809D01*
X162710952Y-110513809D01*
X163901428Y-110942380D02*
X163568095Y-110466190D01*
X163330000Y-110942380D02*
X163330000Y-109942380D01*
X163710952Y-109942380D01*
X163806190Y-109990000D01*
X163853809Y-110037619D01*
X163901428Y-110132857D01*
X163901428Y-110275714D01*
X163853809Y-110370952D01*
X163806190Y-110418571D01*
X163710952Y-110466190D01*
X163330000Y-110466190D01*
X164330000Y-110942380D02*
X164330000Y-109942380D01*
X164806190Y-110942380D02*
X164806190Y-109942380D01*
X165044285Y-109942380D01*
X165187142Y-109990000D01*
X165282380Y-110085238D01*
X165330000Y-110180476D01*
X165377619Y-110370952D01*
X165377619Y-110513809D01*
X165330000Y-110704285D01*
X165282380Y-110799523D01*
X165187142Y-110894761D01*
X165044285Y-110942380D01*
X164806190Y-110942380D01*
%TO.C,R7*%
X161123333Y-94432380D02*
X160790000Y-93956190D01*
X160551904Y-94432380D02*
X160551904Y-93432380D01*
X160932857Y-93432380D01*
X161028095Y-93480000D01*
X161075714Y-93527619D01*
X161123333Y-93622857D01*
X161123333Y-93765714D01*
X161075714Y-93860952D01*
X161028095Y-93908571D01*
X160932857Y-93956190D01*
X160551904Y-93956190D01*
X161456666Y-93432380D02*
X162123333Y-93432380D01*
X161694761Y-94432380D01*
%TO.C,R6*%
X170013333Y-99062380D02*
X169680000Y-98586190D01*
X169441904Y-99062380D02*
X169441904Y-98062380D01*
X169822857Y-98062380D01*
X169918095Y-98110000D01*
X169965714Y-98157619D01*
X170013333Y-98252857D01*
X170013333Y-98395714D01*
X169965714Y-98490952D01*
X169918095Y-98538571D01*
X169822857Y-98586190D01*
X169441904Y-98586190D01*
X170870476Y-98062380D02*
X170680000Y-98062380D01*
X170584761Y-98110000D01*
X170537142Y-98157619D01*
X170441904Y-98300476D01*
X170394285Y-98490952D01*
X170394285Y-98871904D01*
X170441904Y-98967142D01*
X170489523Y-99014761D01*
X170584761Y-99062380D01*
X170775238Y-99062380D01*
X170870476Y-99014761D01*
X170918095Y-98967142D01*
X170965714Y-98871904D01*
X170965714Y-98633809D01*
X170918095Y-98538571D01*
X170870476Y-98490952D01*
X170775238Y-98443333D01*
X170584761Y-98443333D01*
X170489523Y-98490952D01*
X170441904Y-98538571D01*
X170394285Y-98633809D01*
D11*
%TO.C,R8*%
X135430000Y-89720000D02*
X126190000Y-89720000D01*
X126190000Y-93160000D02*
X135430000Y-93160000D01*
X137390000Y-91440000D02*
X135430000Y-91440000D01*
X126190000Y-89720000D02*
X126190000Y-93160000D01*
X135430000Y-93160000D02*
X135430000Y-89720000D01*
X124230000Y-91440000D02*
X126190000Y-91440000D01*
%TO.C,C2*%
X155590000Y-107630000D02*
X166830000Y-107630000D01*
X166830000Y-103190000D02*
X166830000Y-104485000D01*
X155590000Y-103190000D02*
X155590000Y-104485000D01*
X155590000Y-103190000D02*
X166830000Y-103190000D01*
X166830000Y-106335000D02*
X166830000Y-107630000D01*
X155590000Y-106335000D02*
X155590000Y-107630000D01*
%TO.C,R10*%
X132310000Y-111760000D02*
X127810000Y-111760000D01*
X127810000Y-110040000D02*
X118570000Y-110040000D01*
X118570000Y-110040000D02*
X118570000Y-113480000D01*
X114070000Y-111760000D02*
X118570000Y-111760000D01*
X118570000Y-113480000D02*
X127810000Y-113480000D01*
X127810000Y-113480000D02*
X127810000Y-110040000D01*
%TO.C,R5*%
X159210000Y-120200000D02*
X159210000Y-123640000D01*
X168450000Y-123640000D02*
X168450000Y-120200000D01*
X168450000Y-120200000D02*
X159210000Y-120200000D01*
X157250000Y-121920000D02*
X159210000Y-121920000D01*
X170410000Y-121920000D02*
X168450000Y-121920000D01*
X159210000Y-123640000D02*
X168450000Y-123640000D01*
%TO.C,C6*%
X114760000Y-118425000D02*
X114760000Y-116870000D01*
X124000000Y-118425000D02*
X114760000Y-118425000D01*
X114760000Y-115540000D02*
X114760000Y-113985000D01*
X124000000Y-115540000D02*
X124000000Y-113985000D01*
X124000000Y-113985000D02*
X114760000Y-113985000D01*
X124000000Y-118425000D02*
X124000000Y-116870000D01*
%TO.C,R2*%
X136120000Y-99060000D02*
X134160000Y-99060000D01*
X124920000Y-100780000D02*
X134160000Y-100780000D01*
X134160000Y-97340000D02*
X124920000Y-97340000D01*
X124920000Y-97340000D02*
X124920000Y-100780000D01*
X122960000Y-99060000D02*
X124920000Y-99060000D01*
X134160000Y-100780000D02*
X134160000Y-97340000D01*
%TO.C,C5*%
X150320000Y-90775000D02*
X150320000Y-89220000D01*
X159560000Y-93660000D02*
X150320000Y-93660000D01*
X159560000Y-90775000D02*
X159560000Y-89220000D01*
X159560000Y-89220000D02*
X150320000Y-89220000D01*
X150320000Y-93660000D02*
X150320000Y-92105000D01*
X159560000Y-93660000D02*
X159560000Y-92105000D01*
%TO.C,R3*%
X157250000Y-118110000D02*
X159210000Y-118110000D01*
X168450000Y-116390000D02*
X159210000Y-116390000D01*
X170410000Y-118110000D02*
X168450000Y-118110000D01*
X159210000Y-116390000D02*
X159210000Y-119830000D01*
X168450000Y-119830000D02*
X168450000Y-116390000D01*
X159210000Y-119830000D02*
X168450000Y-119830000D01*
%TO.C,C3*%
X139867395Y-121872500D02*
X139867395Y-122658500D01*
X140267395Y-119513500D02*
X140267395Y-119792500D01*
X138386395Y-118276500D02*
X138386395Y-119792500D01*
X140427395Y-119821500D02*
X140427395Y-121843500D01*
X138827395Y-118377500D02*
X138827395Y-119792500D01*
X138466395Y-118289500D02*
X138466395Y-119792500D01*
X139507395Y-118710500D02*
X139507395Y-119792500D01*
X139787395Y-121872500D02*
X139787395Y-122733500D01*
X140467395Y-119917500D02*
X140467395Y-121747500D01*
X138306395Y-121872500D02*
X138306395Y-123397500D01*
X140027395Y-121872500D02*
X140027395Y-122485500D01*
X138787395Y-118364500D02*
X138787395Y-119792500D01*
X139067395Y-121872500D02*
X139067395Y-123197500D01*
X139707395Y-118861500D02*
X139707395Y-119792500D01*
X139947395Y-119089500D02*
X139947395Y-119792500D01*
X139827395Y-121872500D02*
X139827395Y-122696500D01*
X138546395Y-121872500D02*
X138546395Y-123360500D01*
X139027395Y-118450500D02*
X139027395Y-119792500D01*
X139627395Y-118797500D02*
X139627395Y-119792500D01*
X138106395Y-118253500D02*
X138106395Y-123411500D01*
X135471620Y-119107500D02*
X135471620Y-119607500D01*
X139427395Y-118657500D02*
X139427395Y-119792500D01*
X139467395Y-118683500D02*
X139467395Y-119792500D01*
X139147395Y-121872500D02*
X139147395Y-123161500D01*
X139627395Y-121872500D02*
X139627395Y-122867500D01*
X138506395Y-118296500D02*
X138506395Y-119792500D01*
X140187395Y-121872500D02*
X140187395Y-122275500D01*
X139507395Y-121872500D02*
X139507395Y-122954500D01*
X138987395Y-121872500D02*
X138987395Y-123230500D01*
X138747395Y-121872500D02*
X138747395Y-123312500D01*
X135221620Y-119357500D02*
X135721620Y-119357500D01*
X138787395Y-121872500D02*
X138787395Y-123300500D01*
X139267395Y-121872500D02*
X139267395Y-123100500D01*
X140107395Y-121872500D02*
X140107395Y-122386500D01*
X139747395Y-121872500D02*
X139747395Y-122769500D01*
X138867395Y-118390500D02*
X138867395Y-119792500D01*
X139187395Y-118522500D02*
X139187395Y-119792500D01*
X140147395Y-121872500D02*
X140147395Y-122332500D01*
X140547395Y-120155500D02*
X140547395Y-121509500D01*
X138306395Y-118267500D02*
X138306395Y-119792500D01*
X139027395Y-121872500D02*
X139027395Y-123214500D01*
X139907395Y-119047500D02*
X139907395Y-119792500D01*
X139947395Y-121872500D02*
X139947395Y-122575500D01*
X138666395Y-118331500D02*
X138666395Y-119792500D01*
X138706395Y-121872500D02*
X138706395Y-123323500D01*
X139907395Y-121872500D02*
X139907395Y-122617500D01*
X138066395Y-118252500D02*
X138066395Y-123412500D01*
X138747395Y-118352500D02*
X138747395Y-119792500D01*
X139587395Y-121872500D02*
X139587395Y-122897500D01*
X138546395Y-118304500D02*
X138546395Y-119792500D01*
X138266395Y-118263500D02*
X138266395Y-119792500D01*
X139387395Y-121872500D02*
X139387395Y-123032500D01*
X138586395Y-118312500D02*
X138586395Y-119792500D01*
X138827395Y-121872500D02*
X138827395Y-123287500D01*
X138426395Y-118282500D02*
X138426395Y-119792500D01*
X139987395Y-121872500D02*
X139987395Y-122531500D01*
X139307395Y-121872500D02*
X139307395Y-123079500D01*
X139187395Y-121872500D02*
X139187395Y-123142500D01*
X140587395Y-120314500D02*
X140587395Y-121350500D01*
X138026395Y-118252500D02*
X138026395Y-123412500D01*
X139307395Y-118585500D02*
X139307395Y-119792500D01*
X139427395Y-121872500D02*
X139427395Y-123007500D01*
X139147395Y-118503500D02*
X139147395Y-119792500D01*
X140147395Y-119332500D02*
X140147395Y-119792500D01*
X139347395Y-121872500D02*
X139347395Y-123056500D01*
X140187395Y-119389500D02*
X140187395Y-119792500D01*
X140507395Y-120027500D02*
X140507395Y-121637500D01*
X138987395Y-118434500D02*
X138987395Y-119792500D01*
X138346395Y-121872500D02*
X138346395Y-123393500D01*
X138426395Y-121872500D02*
X138426395Y-123382500D01*
X140627395Y-120548500D02*
X140627395Y-121116500D01*
X138586395Y-121872500D02*
X138586395Y-123352500D01*
X140267395Y-121872500D02*
X140267395Y-122151500D01*
X139067395Y-118467500D02*
X139067395Y-119792500D01*
X139667395Y-121872500D02*
X139667395Y-122836500D01*
X138466395Y-121872500D02*
X138466395Y-123375500D01*
X139587395Y-118767500D02*
X139587395Y-119792500D01*
X139547395Y-118737500D02*
X139547395Y-119792500D01*
X139667395Y-118828500D02*
X139667395Y-119792500D01*
X138706395Y-118341500D02*
X138706395Y-119792500D01*
X138907395Y-121872500D02*
X138907395Y-123260500D01*
X138907395Y-118404500D02*
X138907395Y-119792500D01*
X139547395Y-121872500D02*
X139547395Y-122927500D01*
X139827395Y-118968500D02*
X139827395Y-119792500D01*
X140067395Y-119227500D02*
X140067395Y-119792500D01*
X139267395Y-118564500D02*
X139267395Y-119792500D01*
X139107395Y-121872500D02*
X139107395Y-123180500D01*
X140067395Y-121872500D02*
X140067395Y-122437500D01*
X138947395Y-118418500D02*
X138947395Y-119792500D01*
X139387395Y-118632500D02*
X139387395Y-119792500D01*
X139467395Y-121872500D02*
X139467395Y-122981500D01*
X139347395Y-118608500D02*
X139347395Y-119792500D01*
X138947395Y-121872500D02*
X138947395Y-123246500D01*
X139107395Y-118484500D02*
X139107395Y-119792500D01*
X140387395Y-119734500D02*
X140387395Y-121930500D01*
X139987395Y-119133500D02*
X139987395Y-119792500D01*
X139227395Y-121872500D02*
X139227395Y-123122500D01*
X138386395Y-121872500D02*
X138386395Y-123388500D01*
X138146395Y-118254500D02*
X138146395Y-123410500D01*
X140227395Y-121872500D02*
X140227395Y-122215500D01*
X139867395Y-119006500D02*
X139867395Y-119792500D01*
X139747395Y-118895500D02*
X139747395Y-119792500D01*
X138626395Y-121872500D02*
X138626395Y-123343500D01*
X138666395Y-121872500D02*
X138666395Y-123333500D01*
X140027395Y-119179500D02*
X140027395Y-119792500D01*
X138266395Y-121872500D02*
X138266395Y-123401500D01*
X139227395Y-118542500D02*
X139227395Y-119792500D01*
X138186395Y-118256500D02*
X138186395Y-123408500D01*
X138226395Y-118259500D02*
X138226395Y-123405500D01*
X140107395Y-119278500D02*
X140107395Y-119792500D01*
X138626395Y-118321500D02*
X138626395Y-119792500D01*
X139787395Y-118931500D02*
X139787395Y-119792500D01*
X138867395Y-121872500D02*
X138867395Y-123274500D01*
X139707395Y-121872500D02*
X139707395Y-122803500D01*
X140307395Y-121872500D02*
X140307395Y-122083500D01*
X140307395Y-119581500D02*
X140307395Y-119792500D01*
X138506395Y-121872500D02*
X138506395Y-123368500D01*
X140227395Y-119449500D02*
X140227395Y-119792500D01*
X140347395Y-119654500D02*
X140347395Y-122010500D01*
X138346395Y-118271500D02*
X138346395Y-119792500D01*
X140646395Y-120832500D02*
G75*
G03*
X140646395Y-120832500I-2620000J0D01*
G01*
%TO.C,R11*%
X133580000Y-102870000D02*
X131620000Y-102870000D01*
X131620000Y-104590000D02*
X131620000Y-101150000D01*
X120420000Y-102870000D02*
X122380000Y-102870000D01*
X131620000Y-101150000D02*
X122380000Y-101150000D01*
X122380000Y-104590000D02*
X131620000Y-104590000D01*
X122380000Y-101150000D02*
X122380000Y-104590000D01*
%TO.C,C4*%
X133890000Y-105095000D02*
X122650000Y-105095000D01*
X133890000Y-109535000D02*
X133890000Y-108240000D01*
X133890000Y-109535000D02*
X122650000Y-109535000D01*
X122650000Y-109535000D02*
X122650000Y-108240000D01*
X133890000Y-106390000D02*
X133890000Y-105095000D01*
X122650000Y-106390000D02*
X122650000Y-105095000D01*
%TO.C,R12*%
X114760000Y-118930000D02*
X114760000Y-122370000D01*
X124000000Y-122370000D02*
X124000000Y-118930000D01*
X112800000Y-120650000D02*
X114760000Y-120650000D01*
X114760000Y-122370000D02*
X124000000Y-122370000D01*
X125960000Y-120650000D02*
X124000000Y-120650000D01*
X124000000Y-118930000D02*
X114760000Y-118930000D01*
%TO.C,R1*%
X168450000Y-116020000D02*
X168450000Y-112580000D01*
X159210000Y-116020000D02*
X168450000Y-116020000D01*
X157250000Y-114300000D02*
X159210000Y-114300000D01*
X170410000Y-114300000D02*
X168450000Y-114300000D01*
X168450000Y-112580000D02*
X159210000Y-112580000D01*
X159210000Y-112580000D02*
X159210000Y-116020000D01*
%TO.C,C1*%
X151860000Y-123211000D02*
X151860000Y-121690000D01*
X149819000Y-121748000D02*
X149819000Y-119552000D01*
X150059000Y-122150000D02*
X150059000Y-121690000D01*
X151219000Y-123048000D02*
X151219000Y-121690000D01*
X150699000Y-122772000D02*
X150699000Y-121690000D01*
X150459000Y-119610000D02*
X150459000Y-118713000D01*
X151540000Y-123151000D02*
X151540000Y-121690000D01*
X150859000Y-119610000D02*
X150859000Y-118426000D01*
X151139000Y-123015000D02*
X151139000Y-121690000D01*
X151379000Y-119610000D02*
X151379000Y-118195000D01*
X151339000Y-123092000D02*
X151339000Y-121690000D01*
X150019000Y-122093000D02*
X150019000Y-121690000D01*
X149699000Y-121455000D02*
X149699000Y-119845000D01*
X150179000Y-119610000D02*
X150179000Y-118997000D01*
X152060000Y-123228000D02*
X152060000Y-118072000D01*
X150419000Y-119610000D02*
X150419000Y-118749000D01*
X150619000Y-119610000D02*
X150619000Y-118585000D01*
X151620000Y-123170000D02*
X151620000Y-121690000D01*
X151179000Y-123032000D02*
X151179000Y-121690000D01*
X150779000Y-119610000D02*
X150779000Y-118475000D01*
X149979000Y-119610000D02*
X149979000Y-119267000D01*
X150179000Y-122303000D02*
X150179000Y-121690000D01*
X150859000Y-122874000D02*
X150859000Y-121690000D01*
X151540000Y-119610000D02*
X151540000Y-118149000D01*
X151780000Y-123200000D02*
X151780000Y-121690000D01*
X150219000Y-122349000D02*
X150219000Y-121690000D01*
X151299000Y-123078000D02*
X151299000Y-121690000D01*
X150899000Y-122897000D02*
X150899000Y-121690000D01*
X152020000Y-123226000D02*
X152020000Y-118074000D01*
X150099000Y-122204000D02*
X150099000Y-121690000D01*
X152180000Y-123230000D02*
X152180000Y-118070000D01*
X150219000Y-119610000D02*
X150219000Y-118951000D01*
X150459000Y-122587000D02*
X150459000Y-121690000D01*
X150499000Y-119610000D02*
X150499000Y-118679000D01*
X151820000Y-119610000D02*
X151820000Y-118094000D01*
X150299000Y-122435000D02*
X150299000Y-121690000D01*
X150059000Y-119610000D02*
X150059000Y-119150000D01*
X150739000Y-122799000D02*
X150739000Y-121690000D01*
X151019000Y-122960000D02*
X151019000Y-121690000D01*
X150339000Y-119610000D02*
X150339000Y-118824000D01*
X149939000Y-121969000D02*
X149939000Y-121690000D01*
X150139000Y-122255000D02*
X150139000Y-121690000D01*
X151459000Y-119610000D02*
X151459000Y-118170000D01*
X152100000Y-123229000D02*
X152100000Y-118071000D01*
X150579000Y-119610000D02*
X150579000Y-118615000D01*
X149939000Y-119610000D02*
X149939000Y-119331000D01*
X149619000Y-121168000D02*
X149619000Y-120132000D01*
X150939000Y-122918000D02*
X150939000Y-121690000D01*
X150259000Y-122393000D02*
X150259000Y-121690000D01*
X151299000Y-119610000D02*
X151299000Y-118222000D01*
X150939000Y-119610000D02*
X150939000Y-118382000D01*
X150379000Y-119610000D02*
X150379000Y-118786000D01*
X151419000Y-123118000D02*
X151419000Y-121690000D01*
X150539000Y-119610000D02*
X150539000Y-118646000D01*
X151019000Y-119610000D02*
X151019000Y-118340000D01*
X151580000Y-119610000D02*
X151580000Y-118139000D01*
X151259000Y-123064000D02*
X151259000Y-121690000D01*
X151259000Y-119610000D02*
X151259000Y-118236000D01*
X151900000Y-123215000D02*
X151900000Y-121690000D01*
X151339000Y-119610000D02*
X151339000Y-118208000D01*
X151379000Y-123105000D02*
X151379000Y-121690000D01*
X151059000Y-122979000D02*
X151059000Y-121690000D01*
X149859000Y-121828000D02*
X149859000Y-119472000D01*
X150779000Y-122825000D02*
X150779000Y-121690000D01*
X151459000Y-123130000D02*
X151459000Y-121690000D01*
X149739000Y-121565000D02*
X149739000Y-119735000D01*
X151980000Y-123223000D02*
X151980000Y-118077000D01*
X151780000Y-119610000D02*
X151780000Y-118100000D01*
X151940000Y-123219000D02*
X151940000Y-121690000D01*
X152140000Y-123230000D02*
X152140000Y-118070000D01*
X150819000Y-119610000D02*
X150819000Y-118450000D01*
X151820000Y-123206000D02*
X151820000Y-121690000D01*
X150699000Y-119610000D02*
X150699000Y-118528000D01*
X151740000Y-119610000D02*
X151740000Y-118107000D01*
X154984775Y-122125000D02*
X154484775Y-122125000D01*
X150299000Y-119610000D02*
X150299000Y-118865000D01*
X149979000Y-122033000D02*
X149979000Y-121690000D01*
X149899000Y-121901000D02*
X149899000Y-121690000D01*
X150339000Y-122476000D02*
X150339000Y-121690000D01*
X150499000Y-122621000D02*
X150499000Y-121690000D01*
X150659000Y-119610000D02*
X150659000Y-118555000D01*
X151500000Y-123141000D02*
X151500000Y-121690000D01*
X151620000Y-119610000D02*
X151620000Y-118130000D01*
X151580000Y-123161000D02*
X151580000Y-121690000D01*
X150739000Y-119610000D02*
X150739000Y-118501000D01*
X149659000Y-121327000D02*
X149659000Y-119973000D01*
X151219000Y-119610000D02*
X151219000Y-118252000D01*
X151099000Y-119610000D02*
X151099000Y-118302000D01*
X149899000Y-119610000D02*
X149899000Y-119399000D01*
X150819000Y-122850000D02*
X150819000Y-121690000D01*
X151940000Y-119610000D02*
X151940000Y-118081000D01*
X150539000Y-122654000D02*
X150539000Y-121690000D01*
X150979000Y-119610000D02*
X150979000Y-118360000D01*
X150899000Y-119610000D02*
X150899000Y-118403000D01*
X151139000Y-119610000D02*
X151139000Y-118285000D01*
X151419000Y-119610000D02*
X151419000Y-118182000D01*
X150379000Y-122514000D02*
X150379000Y-121690000D01*
X151700000Y-123186000D02*
X151700000Y-121690000D01*
X151500000Y-119610000D02*
X151500000Y-118159000D01*
X150099000Y-119610000D02*
X150099000Y-119096000D01*
X150579000Y-122685000D02*
X150579000Y-121690000D01*
X150139000Y-119610000D02*
X150139000Y-119045000D01*
X154734775Y-122375000D02*
X154734775Y-121875000D01*
X150619000Y-122715000D02*
X150619000Y-121690000D01*
X150259000Y-119610000D02*
X150259000Y-118907000D01*
X151099000Y-122998000D02*
X151099000Y-121690000D01*
X150659000Y-122745000D02*
X150659000Y-121690000D01*
X151700000Y-119610000D02*
X151700000Y-118114000D01*
X149579000Y-120934000D02*
X149579000Y-120366000D01*
X151660000Y-119610000D02*
X151660000Y-118122000D01*
X151740000Y-123193000D02*
X151740000Y-121690000D01*
X150979000Y-122940000D02*
X150979000Y-121690000D01*
X151900000Y-119610000D02*
X151900000Y-118085000D01*
X150019000Y-119610000D02*
X150019000Y-119207000D01*
X151860000Y-119610000D02*
X151860000Y-118089000D01*
X149779000Y-121661000D02*
X149779000Y-119639000D01*
X151179000Y-119610000D02*
X151179000Y-118268000D01*
X151059000Y-119610000D02*
X151059000Y-118321000D01*
X151660000Y-123178000D02*
X151660000Y-121690000D01*
X150419000Y-122551000D02*
X150419000Y-121690000D01*
X154800000Y-120650000D02*
G75*
G03*
X154800000Y-120650000I-2620000J0D01*
G01*
%TO.C,R9*%
X126190000Y-96970000D02*
X135430000Y-96970000D01*
X135430000Y-93530000D02*
X126190000Y-93530000D01*
X124230000Y-95250000D02*
X126190000Y-95250000D01*
X135430000Y-96970000D02*
X135430000Y-93530000D01*
X137390000Y-95250000D02*
X135430000Y-95250000D01*
X126190000Y-93530000D02*
X126190000Y-96970000D01*
%TO.C,R4*%
X159210000Y-112210000D02*
X168450000Y-112210000D01*
X168450000Y-112210000D02*
X168450000Y-108770000D01*
X168450000Y-108770000D02*
X159210000Y-108770000D01*
X159210000Y-108770000D02*
X159210000Y-112210000D01*
X170410000Y-110490000D02*
X168450000Y-110490000D01*
X157250000Y-110490000D02*
X159210000Y-110490000D01*
%TO.C,R7*%
X150320000Y-97790000D02*
X159560000Y-97790000D01*
X148360000Y-96070000D02*
X150320000Y-96070000D01*
X159560000Y-97790000D02*
X159560000Y-94350000D01*
X159560000Y-94350000D02*
X150320000Y-94350000D01*
X150320000Y-94350000D02*
X150320000Y-97790000D01*
X161520000Y-96070000D02*
X159560000Y-96070000D01*
%TO.C,R6*%
X157940000Y-102050000D02*
X167180000Y-102050000D01*
X157940000Y-98610000D02*
X157940000Y-102050000D01*
X171680000Y-100330000D02*
X167180000Y-100330000D01*
X167180000Y-98610000D02*
X157940000Y-98610000D01*
X153440000Y-100330000D02*
X157940000Y-100330000D01*
X167180000Y-102050000D02*
X167180000Y-98610000D01*
%TD*%
M02*
