%TF.GenerationSoftware,KiCad,Pcbnew,(6.0.11-0)*%
%TF.CreationDate,2023-05-07T13:48:13+09:00*%
%TF.ProjectId,tubeTest,74756265-5465-4737-942e-6b696361645f,rev?*%
%TF.SameCoordinates,Original*%
%TF.FileFunction,Copper,L1,Top*%
%TF.FilePolarity,Positive*%
%FSLAX46Y46*%
G04 Gerber Fmt 4.6, Leading zero omitted, Abs format (unit mm)*
G04 Created by KiCad (PCBNEW (6.0.11-0)) date 2023-05-07 13:48:13*
%MOMM*%
%LPD*%
G01*
G04 APERTURE LIST*
G04 Aperture macros list*
%AMRoundRect*
0 Rectangle with rounded corners*
0 $1 Rounding radius*
0 $2 $3 $4 $5 $6 $7 $8 $9 X,Y pos of 4 corners*
0 Add a 4 corners polygon primitive as box body*
4,1,4,$2,$3,$4,$5,$6,$7,$8,$9,$2,$3,0*
0 Add four circle primitives for the rounded corners*
1,1,$1+$1,$2,$3*
1,1,$1+$1,$4,$5*
1,1,$1+$1,$6,$7*
1,1,$1+$1,$8,$9*
0 Add four rect primitives between the rounded corners*
20,1,$1+$1,$2,$3,$4,$5,0*
20,1,$1+$1,$4,$5,$6,$7,0*
20,1,$1+$1,$6,$7,$8,$9,0*
20,1,$1+$1,$8,$9,$2,$3,0*%
%AMHorizOval*
0 Thick line with rounded ends*
0 $1 width*
0 $2 $3 position (X,Y) of the first rounded end (center of the circle)*
0 $4 $5 position (X,Y) of the second rounded end (center of the circle)*
0 Add line between two ends*
20,1,$1,$2,$3,$4,$5,0*
0 Add two circle primitives to create the rounded ends*
1,1,$1,$2,$3*
1,1,$1,$4,$5*%
G04 Aperture macros list end*
%TA.AperFunction,ComponentPad*%
%ADD10C,1.600000*%
%TD*%
%TA.AperFunction,ComponentPad*%
%ADD11O,1.600000X1.600000*%
%TD*%
%TA.AperFunction,ComponentPad*%
%ADD12RoundRect,0.250002X-1.499998X-1.499998X1.499998X-1.499998X1.499998X1.499998X-1.499998X1.499998X0*%
%TD*%
%TA.AperFunction,ComponentPad*%
%ADD13RoundRect,0.250002X-1.699998X-1.699998X1.699998X-1.699998X1.699998X1.699998X-1.699998X1.699998X0*%
%TD*%
%TA.AperFunction,ComponentPad*%
%ADD14R,1.600000X1.600000*%
%TD*%
%TA.AperFunction,ComponentPad*%
%ADD15HorizOval,2.030000X-0.412599X0.299770X0.412599X-0.299770X0*%
%TD*%
%TA.AperFunction,ComponentPad*%
%ADD16HorizOval,2.030000X-0.157599X0.485039X0.157599X-0.485039X0*%
%TD*%
%TA.AperFunction,ComponentPad*%
%ADD17HorizOval,2.030000X0.157599X0.485039X-0.157599X-0.485039X0*%
%TD*%
%TA.AperFunction,ComponentPad*%
%ADD18HorizOval,2.030000X0.412599X0.299770X-0.412599X-0.299770X0*%
%TD*%
%TA.AperFunction,ComponentPad*%
%ADD19O,3.050000X2.030000*%
%TD*%
%TA.AperFunction,ComponentPad*%
%ADD20C,4.500000*%
%TD*%
%TA.AperFunction,Conductor*%
%ADD21C,0.500000*%
%TD*%
%TA.AperFunction,Conductor*%
%ADD22C,0.250000*%
%TD*%
%TA.AperFunction,Conductor*%
%ADD23C,0.750000*%
%TD*%
G04 APERTURE END LIST*
D10*
%TO.P,R8,1*%
%TO.N,GND*%
X123190000Y-91440000D03*
D11*
%TO.P,R8,2*%
%TO.N,Net-(J7-Pad1)*%
X138430000Y-91440000D03*
%TD*%
D10*
%TO.P,C2,1*%
%TO.N,Net-(C2-Pad1)*%
X156210000Y-105410000D03*
%TO.P,C2,2*%
%TO.N,Net-(C2-Pad2)*%
X166210000Y-105410000D03*
%TD*%
D12*
%TO.P,J9,1,Pin_1*%
%TO.N,Net-(J9-Pad1)*%
X170180000Y-85090000D03*
%TD*%
%TO.P,J7,1,Pin_1*%
%TO.N,Net-(J7-Pad1)*%
X130810000Y-85090000D03*
%TD*%
D10*
%TO.P,R10,1*%
%TO.N,Net-(J10-Pad1)*%
X113030000Y-111760000D03*
D11*
%TO.P,R10,2*%
%TO.N,Net-(C4-Pad1)*%
X133350000Y-111760000D03*
%TD*%
D12*
%TO.P,J10,1,Pin_1*%
%TO.N,Net-(J10-Pad1)*%
X114300000Y-85090000D03*
%TD*%
D13*
%TO.P,J2,1,Pin_1*%
%TO.N,GND*%
X144780000Y-125730000D03*
%TD*%
D12*
%TO.P,J5,1,Pin_1*%
%TO.N,Net-(C6-Pad2)*%
X125730000Y-85090000D03*
%TD*%
D10*
%TO.P,R5,1*%
%TO.N,Net-(C1-Pad1)*%
X156210000Y-121920000D03*
D11*
%TO.P,R5,2*%
%TO.N,GND*%
X171450000Y-121920000D03*
%TD*%
D10*
%TO.P,C6,1*%
%TO.N,Net-(C4-Pad2)*%
X123130000Y-116205000D03*
%TO.P,C6,2*%
%TO.N,Net-(C6-Pad2)*%
X115630000Y-116205000D03*
%TD*%
%TO.P,R2,1*%
%TO.N,Net-(J7-Pad1)*%
X121920000Y-99060000D03*
D11*
%TO.P,R2,2*%
%TO.N,Net-(R11-Pad2)*%
X137160000Y-99060000D03*
%TD*%
D10*
%TO.P,C5,1*%
%TO.N,Net-(C2-Pad2)*%
X158690000Y-91440000D03*
%TO.P,C5,2*%
%TO.N,Net-(C5-Pad2)*%
X151190000Y-91440000D03*
%TD*%
%TO.P,R3,1*%
%TO.N,Net-(J1-Pad1)*%
X156210000Y-118110000D03*
D11*
%TO.P,R3,2*%
%TO.N,GND*%
X171450000Y-118110000D03*
%TD*%
D12*
%TO.P,J8,1,Pin_1*%
%TO.N,Net-(C5-Pad2)*%
X153670000Y-85090000D03*
%TD*%
%TO.P,J6,1,Pin_1*%
%TO.N,+3V0*%
X144780000Y-85090000D03*
%TD*%
D14*
%TO.P,C3,1*%
%TO.N,Net-(C3-Pad1)*%
X136776395Y-120832500D03*
D10*
%TO.P,C3,2*%
%TO.N,GND*%
X139276395Y-120832500D03*
%TD*%
%TO.P,R11,1*%
%TO.N,GND*%
X119380000Y-102870000D03*
D11*
%TO.P,R11,2*%
%TO.N,Net-(R11-Pad2)*%
X134620000Y-102870000D03*
%TD*%
D12*
%TO.P,J1,1,Pin_1*%
%TO.N,Net-(J1-Pad1)*%
X158750000Y-85090000D03*
%TD*%
D10*
%TO.P,C4,1*%
%TO.N,Net-(C4-Pad1)*%
X133270000Y-107315000D03*
%TO.P,C4,2*%
%TO.N,Net-(C4-Pad2)*%
X123270000Y-107315000D03*
%TD*%
%TO.P,R12,1*%
%TO.N,Net-(C4-Pad2)*%
X127000000Y-120650000D03*
D11*
%TO.P,R12,2*%
%TO.N,Net-(C6-Pad2)*%
X111760000Y-120650000D03*
%TD*%
D10*
%TO.P,R1,1*%
%TO.N,GND*%
X171450000Y-114300000D03*
D11*
%TO.P,R1,2*%
%TO.N,Net-(R1-Pad2)*%
X156210000Y-114300000D03*
%TD*%
D14*
%TO.P,C1,1*%
%TO.N,Net-(C1-Pad1)*%
X153430000Y-120650000D03*
D10*
%TO.P,C1,2*%
%TO.N,GND*%
X150930000Y-120650000D03*
%TD*%
%TO.P,R9,1*%
%TO.N,Net-(C3-Pad1)*%
X138430000Y-95250000D03*
D11*
%TO.P,R9,2*%
%TO.N,GND*%
X123190000Y-95250000D03*
%TD*%
D10*
%TO.P,R4,1*%
%TO.N,Net-(J1-Pad1)*%
X171450000Y-110490000D03*
D11*
%TO.P,R4,2*%
%TO.N,Net-(R1-Pad2)*%
X156210000Y-110490000D03*
%TD*%
D10*
%TO.P,R7,1*%
%TO.N,Net-(C2-Pad2)*%
X162560000Y-96070000D03*
D11*
%TO.P,R7,2*%
%TO.N,Net-(C5-Pad2)*%
X147320000Y-96070000D03*
%TD*%
D12*
%TO.P,J3,1,Pin_1*%
%TO.N,-3V3*%
X139700000Y-85090000D03*
%TD*%
D10*
%TO.P,R6,1*%
%TO.N,Net-(J9-Pad1)*%
X172720000Y-100330000D03*
D11*
%TO.P,R6,2*%
%TO.N,Net-(C2-Pad1)*%
X152400000Y-100330000D03*
%TD*%
D15*
%TO.P,U3,1,A*%
%TO.N,Net-(C4-Pad1)*%
X141330000Y-113970000D03*
D16*
%TO.P,U3,2,G*%
%TO.N,Net-(R11-Pad2)*%
X139180000Y-111040000D03*
D17*
%TO.P,U3,3,K*%
%TO.N,Net-(C3-Pad1)*%
X139180000Y-107390000D03*
D18*
%TO.P,U3,4,F1*%
%TO.N,-3V3*%
X141330000Y-104460000D03*
D19*
%TO.P,U3,5,F1*%
%TO.N,+3V0*%
X144780000Y-103320000D03*
D15*
%TO.P,U3,6,A*%
%TO.N,Net-(C2-Pad1)*%
X148240000Y-104460000D03*
D16*
%TO.P,U3,7,G*%
%TO.N,Net-(R1-Pad2)*%
X150390000Y-107390000D03*
D17*
%TO.P,U3,8,K*%
%TO.N,Net-(C1-Pad1)*%
X150390000Y-111000000D03*
D20*
%TO.P,U3,9,F2*%
%TO.N,GND*%
X144780000Y-109220000D03*
D18*
X148240000Y-113970000D03*
%TD*%
D21*
%TO.N,GND*%
X144780000Y-125730000D02*
X143510000Y-127000000D01*
X128270000Y-96520000D02*
X128270000Y-116205000D01*
X148240000Y-113970000D02*
X148240000Y-117190000D01*
X161290000Y-127000000D02*
X146050000Y-127000000D01*
X170180000Y-118110000D02*
X161290000Y-127000000D01*
X125730000Y-105410000D02*
X123190000Y-102870000D01*
X127000000Y-116205000D02*
X136525000Y-125730000D01*
D22*
X146050000Y-124460000D02*
X144780000Y-125730000D01*
D21*
X146050000Y-119380000D02*
X146050000Y-124460000D01*
X169545000Y-121920000D02*
X162560000Y-128905000D01*
X143510000Y-127000000D02*
X136525000Y-127000000D01*
X171450000Y-121920000D02*
X169545000Y-121920000D01*
X160020000Y-125730000D02*
X144780000Y-125730000D01*
X162560000Y-128905000D02*
X146685000Y-128905000D01*
D22*
X143510000Y-124460000D02*
X144780000Y-125730000D01*
D21*
X142422500Y-120832500D02*
X143510000Y-121920000D01*
X171450000Y-118110000D02*
X170180000Y-118110000D01*
X144780000Y-109220000D02*
X144780000Y-125730000D01*
X139276395Y-120832500D02*
X142422500Y-120832500D01*
X148240000Y-117190000D02*
X146050000Y-119380000D01*
X171450000Y-114300000D02*
X160020000Y-125730000D01*
X144780000Y-125730000D02*
X144780000Y-124460000D01*
X150495000Y-124460000D02*
X146685000Y-124460000D01*
X136525000Y-127000000D02*
X125730000Y-116205000D01*
X146685000Y-124460000D02*
X146050000Y-124460000D01*
X125730000Y-116205000D02*
X125730000Y-105410000D01*
X136525000Y-125730000D02*
X144780000Y-125730000D01*
X123190000Y-91440000D02*
X128270000Y-96520000D01*
X146685000Y-128905000D02*
X146050000Y-128270000D01*
X150930000Y-124025000D02*
X150495000Y-124460000D01*
X123190000Y-102870000D02*
X119380000Y-102870000D01*
X146050000Y-128270000D02*
X146050000Y-127000000D01*
D22*
X146050000Y-127000000D02*
X144780000Y-125730000D01*
D21*
X143510000Y-121920000D02*
X143510000Y-123190000D01*
X150930000Y-120650000D02*
X150930000Y-124025000D01*
X143510000Y-123190000D02*
X143510000Y-124460000D01*
X123190000Y-95250000D02*
X127000000Y-99060000D01*
X128270000Y-116205000D02*
X136525000Y-124460000D01*
X127000000Y-99060000D02*
X127000000Y-116205000D01*
X143510000Y-125730000D02*
X144780000Y-124460000D01*
X136525000Y-124460000D02*
X143510000Y-124460000D01*
D22*
%TO.N,Net-(C1-Pad1)*%
X153430000Y-114040000D02*
X150390000Y-111000000D01*
X153430000Y-120650000D02*
X153430000Y-114040000D01*
X154700000Y-121920000D02*
X153430000Y-120650000D01*
X156210000Y-121920000D02*
X154700000Y-121920000D01*
%TO.N,Net-(C3-Pad1)*%
X129540000Y-115570000D02*
X129540000Y-99060000D01*
X138430000Y-102870000D02*
X139700000Y-101600000D01*
X139700000Y-96520000D02*
X138430000Y-95250000D01*
X138430000Y-105410000D02*
X138430000Y-102870000D01*
X139700000Y-101600000D02*
X139700000Y-96520000D01*
X134802500Y-120832500D02*
X129540000Y-115570000D01*
X133350000Y-95250000D02*
X138430000Y-95250000D01*
X139180000Y-106160000D02*
X138430000Y-105410000D01*
X129540000Y-99060000D02*
X133350000Y-95250000D01*
X136776395Y-120832500D02*
X134802500Y-120832500D01*
X139180000Y-107390000D02*
X139180000Y-106160000D01*
%TO.N,Net-(C4-Pad1)*%
X133270000Y-111680000D02*
X133350000Y-111760000D01*
X133350000Y-111760000D02*
X135560000Y-113970000D01*
X133270000Y-107315000D02*
X133270000Y-111680000D01*
X135560000Y-113970000D02*
X141330000Y-113970000D01*
%TO.N,Net-(C2-Pad1)*%
X156210000Y-103690000D02*
X156210000Y-105410000D01*
X148240000Y-104040000D02*
X148240000Y-104460000D01*
X152400000Y-99880000D02*
X156210000Y-103690000D01*
X152400000Y-99880000D02*
X148240000Y-104040000D01*
%TO.N,Net-(C2-Pad2)*%
X162560000Y-104140000D02*
X162560000Y-96070000D01*
X158690000Y-91440000D02*
X161290000Y-91440000D01*
X162560000Y-92710000D02*
X162560000Y-96070000D01*
X163830000Y-105410000D02*
X162560000Y-104140000D01*
X161290000Y-91440000D02*
X162560000Y-92710000D01*
X166210000Y-105410000D02*
X163830000Y-105410000D01*
%TO.N,Net-(C5-Pad2)*%
X151190000Y-91440000D02*
X152400000Y-91440000D01*
X149860000Y-91440000D02*
X147320000Y-93980000D01*
X153670000Y-90170000D02*
X153670000Y-85090000D01*
X152400000Y-91440000D02*
X153670000Y-90170000D01*
X147320000Y-93980000D02*
X147320000Y-96070000D01*
X151190000Y-91440000D02*
X149860000Y-91440000D01*
%TO.N,Net-(J7-Pad1)*%
X120650000Y-97790000D02*
X120650000Y-91440000D01*
X120650000Y-91440000D02*
X123190000Y-88900000D01*
X138430000Y-91440000D02*
X137160000Y-91440000D01*
X123190000Y-88900000D02*
X127000000Y-88900000D01*
X137160000Y-91440000D02*
X130810000Y-85090000D01*
X127000000Y-88900000D02*
X130810000Y-85090000D01*
X121920000Y-99060000D02*
X120650000Y-97790000D01*
D21*
%TO.N,-3V3*%
X139700000Y-87630000D02*
X141330000Y-89260000D01*
X141330000Y-89260000D02*
X141330000Y-104460000D01*
X139700000Y-85090000D02*
X139700000Y-87630000D01*
%TO.N,+3V0*%
X144780000Y-85090000D02*
X144780000Y-103320000D01*
D22*
%TO.N,Net-(C4-Pad2)*%
X125730000Y-120650000D02*
X123130000Y-118050000D01*
X123130000Y-116205000D02*
X123130000Y-107455000D01*
X127000000Y-120650000D02*
X125730000Y-120650000D01*
X123130000Y-107455000D02*
X123270000Y-107315000D01*
X123130000Y-118050000D02*
X123130000Y-116205000D01*
%TO.N,Net-(J1-Pad1)*%
X156210000Y-87630000D02*
X158750000Y-85090000D01*
X162560000Y-107950000D02*
X168910000Y-107950000D01*
X160020000Y-105410000D02*
X162560000Y-107950000D01*
X168910000Y-107950000D02*
X171450000Y-110490000D01*
X156210000Y-97790000D02*
X156210000Y-87630000D01*
X160020000Y-101600000D02*
X156210000Y-97790000D01*
X160020000Y-105410000D02*
X160020000Y-101600000D01*
X163830000Y-118110000D02*
X171450000Y-110490000D01*
X156210000Y-118110000D02*
X163830000Y-118110000D01*
%TO.N,Net-(C6-Pad2)*%
X114300000Y-120650000D02*
X115630000Y-119320000D01*
X117475000Y-114360000D02*
X117475000Y-93345000D01*
X117475000Y-93345000D02*
X125730000Y-85090000D01*
X115630000Y-119320000D02*
X115630000Y-116205000D01*
X111760000Y-120650000D02*
X114300000Y-120650000D01*
X115630000Y-116205000D02*
X117475000Y-114360000D01*
D23*
%TO.N,Net-(J9-Pad1)*%
X172720000Y-100330000D02*
X172720000Y-87630000D01*
X172720000Y-87630000D02*
X170180000Y-85090000D01*
%TO.N,Net-(J10-Pad1)*%
X113030000Y-111760000D02*
X113030000Y-86360000D01*
X113030000Y-86360000D02*
X114300000Y-85090000D01*
D22*
%TO.N,Net-(R1-Pad2)*%
X156210000Y-114300000D02*
X156210000Y-110490000D01*
X153110000Y-107390000D02*
X150390000Y-107390000D01*
X156210000Y-110490000D02*
X153110000Y-107390000D01*
%TO.N,Net-(R11-Pad2)*%
X134620000Y-100330000D02*
X134620000Y-102870000D01*
X137160000Y-99060000D02*
X135890000Y-99060000D01*
X134620000Y-102870000D02*
X134620000Y-106480000D01*
X134620000Y-106480000D02*
X139180000Y-111040000D01*
X135890000Y-99060000D02*
X134620000Y-100330000D01*
%TD*%
M02*
